<?xml version="1.0" encoding="UTF-8"?> <!-- Generator: Adobe Illustrator 26.3.1, SVG Export Plug-In . SVG Version: 6.00 Build 0) --> <svg xmlns="http://www.w3.org/2000/svg" xmlns:xlink="http://www.w3.org/1999/xlink" version="1.1" id="Layer_2_00000102536766828443189160000014699288915698949258_" x="0px" y="0px" viewBox="0 0 404.5 213.4" style="enable-background:new 0 0 404.5 213.4;" xml:space="preserve"> <style type="text/css"> .st0{fill:#9542E7;} .st1{fill:#091C48;} .st2{fill:#D5B3F5;} .st3{fill:none;stroke:#9542E7;stroke-miterlimit:10;} .st4{fill:none;stroke:#D5B3F5;stroke-miterlimit:10;} .st5{fill:none;stroke:#1D1D1B;stroke-width:0.25;stroke-miterlimit:10;} .st6{fill:none;stroke:#091C48;stroke-miterlimit:10;} </style> <g id="Vrstva_1"> <g> <rect x="25.1" y="172.7" class="st0" width="6.2" height="6.2"></rect> <g> <path class="st1" d="M42.2,177.8v-2l-1.8-2.8h1.2l1.2,1.9l1.2-1.9h1.2l-1.8,2.8v2H42.2L42.2,177.8z"></path> <path class="st1" d="M45.4,173.3c0-0.3,0.2-0.6,0.5-0.6s0.5,0.2,0.5,0.6s-0.2,0.6-0.5,0.6S45.4,173.6,45.4,173.3z M45.5,177.8 v-3.5h0.9v3.5H45.5z"></path> <path class="st1" d="M48.9,174.2c1,0,1.7,0.8,1.7,1.9v0.2h-2.6c0.1,0.4,0.4,0.8,1,0.8c0.3,0,0.7-0.1,0.9-0.4l0.4,0.6 c-0.3,0.3-0.9,0.5-1.4,0.5c-1.1,0-1.9-0.7-1.9-1.8C47.1,175.1,47.9,174.2,48.9,174.2L48.9,174.2z M48.1,175.8h1.7 c0-0.3-0.2-0.8-0.9-0.8C48.3,175,48.1,175.4,48.1,175.8L48.1,175.8z"></path> <path class="st1" d="M51.3,177.8V173h0.9v4.8H51.3z"></path> <path class="st1" d="M55.5,177.8v-0.4c-0.3,0.3-0.7,0.5-1.1,0.5c-0.9,0-1.5-0.7-1.5-1.8s0.7-1.8,1.5-1.8c0.4,0,0.8,0.2,1.1,0.5 V173h0.9v4.8L55.5,177.8L55.5,177.8z M55.5,175.5c-0.2-0.2-0.5-0.4-0.8-0.4c-0.5,0-0.9,0.4-0.9,1s0.4,1,0.9,1 c0.3,0,0.6-0.2,0.8-0.4V175.5L55.5,175.5z"></path> <path class="st1" d="M60,175.3c-0.5-0.2-1-0.5-1-1.1c0-0.9,1-1.3,1.8-1.3s1.8,0.4,1.8,1.3c0,0.6-0.4,0.9-1,1.1 c0.6,0.2,1,0.6,1,1.2c0,0.9-0.9,1.3-1.9,1.3s-1.9-0.4-1.9-1.3C59,176,59.5,175.5,60,175.3z M61,175.8c-0.3,0-0.9,0.2-0.9,0.7 c0,0.4,0.4,0.6,0.9,0.6s0.9-0.2,0.9-0.6C61.8,176,61.2,175.8,61,175.8z M61,173.8c-0.5,0-0.8,0.2-0.8,0.6c0,0.4,0.5,0.5,0.8,0.6 c0.3,0,0.8-0.2,0.8-0.6C61.8,174,61.4,173.8,61,173.8z"></path> <path class="st1" d="M64.5,172.9c0.7,0,1.2,0.5,1.2,1.2s-0.5,1.2-1.2,1.2s-1.2-0.5-1.2-1.2S63.8,172.9,64.5,172.9z M64.5,173.5 c-0.3,0-0.6,0.2-0.6,0.6c0,0.4,0.2,0.6,0.6,0.6s0.6-0.2,0.6-0.6C65.1,173.8,64.9,173.5,64.5,173.5z M64.1,177.8l3.1-4.8h0.6 l-3.1,4.8H64.1z M67.2,175.5c0.7,0,1.2,0.5,1.2,1.2s-0.5,1.2-1.2,1.2s-1.2-0.5-1.2-1.2S66.4,175.5,67.2,175.5z M67.2,176.1 c-0.3,0-0.6,0.2-0.6,0.6s0.2,0.6,0.6,0.6s0.6-0.2,0.6-0.6S67.5,176.1,67.2,176.1z"></path> <path class="st1" d="M71.8,179.1h-0.9v-4.8h0.9v0.4c0.3-0.3,0.7-0.5,1.1-0.5c0.9,0,1.5,0.7,1.5,1.8s-0.7,1.8-1.5,1.8 c-0.4,0-0.8-0.2-1.1-0.5V179.1L71.8,179.1z M72.6,175.1c-0.3,0-0.6,0.2-0.8,0.4v1.2c0.2,0.2,0.5,0.4,0.8,0.4c0.5,0,0.9-0.4,0.9-1 S73.1,175.1,72.6,175.1L72.6,175.1z"></path> <path class="st1" d="M75.6,176.7c0.3,0,0.6,0.3,0.6,0.6s-0.3,0.6-0.6,0.6s-0.6-0.3-0.6-0.6S75.2,176.7,75.6,176.7z"></path> <path class="st1" d="M79,177.8v-0.4c-0.2,0.3-0.7,0.4-1.1,0.4c-0.6,0-1.2-0.4-1.2-1.1s0.7-1.1,1.2-1.1c0.5,0,0.9,0.1,1.1,0.4 v-0.5c0-0.4-0.3-0.6-0.8-0.6c-0.4,0-0.7,0.1-1,0.4l-0.3-0.6c0.4-0.4,1-0.6,1.5-0.6c0.8,0,1.5,0.3,1.5,1.3v2.2L79,177.8L79,177.8z M79,176.6c-0.2-0.2-0.4-0.3-0.7-0.3c-0.4,0-0.7,0.2-0.7,0.5s0.3,0.5,0.7,0.5c0.3,0,0.6-0.1,0.7-0.3V176.6L79,176.6z"></path> <path class="st1" d="M81.3,176.7c0.3,0,0.6,0.3,0.6,0.6s-0.3,0.6-0.6,0.6s-0.6-0.3-0.6-0.6S81,176.7,81.3,176.7z"></path> <path class="st1" d="M85.5,179.2c-0.7-0.8-1.1-2-1.1-3.2s0.4-2.4,1.1-3.2l0.6,0.4c-0.5,0.9-0.7,1.7-0.7,2.8s0.2,1.9,0.7,2.7 L85.5,179.2L85.5,179.2z"></path> <path class="st1" d="M86.7,177.8V173h2.2c1,0,1.6,0.7,1.6,1.6s-0.6,1.5-1.6,1.5h-1.2v1.7H86.7L86.7,177.8z M88.8,173.9h-1.1v1.3 h1.1c0.4,0,0.7-0.3,0.7-0.7S89.2,173.9,88.8,173.9L88.8,173.9z"></path> <path class="st1" d="M91.2,177.8V173h1v4.8H91.2z"></path> <path class="st1" d="M96.5,177.8l-0.3-0.8h-2.2l-0.3,0.8h-1.1l1.9-4.8h1.3l1.8,4.8H96.5L96.5,177.8z M95.1,173.9l-0.8,2.2h1.6 C95.9,176.1,95.1,173.9,95.1,173.9z"></path> <path class="st1" d="M99.9,177.8V173h1v4.8H99.9z"></path> <path class="st1" d="M103.5,176.5v-0.8h1.7v0.8H103.5z"></path> <path class="st1" d="M109.3,174.2c0.7,0,1.2,0.3,1.4,0.6l-0.6,0.6c-0.2-0.2-0.4-0.4-0.7-0.4c-0.6,0-0.9,0.4-0.9,1s0.4,1,0.9,1 c0.3,0,0.6-0.1,0.7-0.4l0.6,0.6c-0.2,0.3-0.7,0.6-1.4,0.6c-1.1,0-1.8-0.8-1.8-1.8S108.3,174.3,109.3,174.2L109.3,174.2z"></path> <path class="st1" d="M113.7,177.8v-0.4c-0.2,0.3-0.7,0.5-1.2,0.5c-0.8,0-1.1-0.4-1.1-1.1v-2.5h0.9v2.1c0,0.5,0.2,0.6,0.6,0.6 c0.3,0,0.6-0.2,0.8-0.4v-2.4h0.9v3.5L113.7,177.8L113.7,177.8z"></path> <path class="st1" d="M119.8,177.8v-2.2c0-0.3-0.1-0.6-0.5-0.6c-0.3,0-0.6,0.2-0.7,0.4v2.4h-0.9v-2.2c0-0.3-0.1-0.6-0.5-0.6 c-0.3,0-0.6,0.2-0.7,0.4v2.3h-0.9v-3.5h0.9v0.4c0.1-0.2,0.6-0.5,1.1-0.5s0.8,0.2,1,0.6c0.2-0.3,0.7-0.6,1.2-0.6 c0.6,0,1,0.3,1,1.1v2.5L119.8,177.8L119.8,177.8z"></path> <path class="st1" d="M124,177.8v-0.4c-0.2,0.3-0.7,0.5-1.2,0.5c-0.8,0-1.1-0.4-1.1-1.1v-2.5h0.9v2.1c0,0.5,0.2,0.6,0.6,0.6 c0.3,0,0.6-0.2,0.8-0.4v-2.4h0.9v3.5L124,177.8L124,177.8z"></path> <path class="st1" d="M125.8,177.8V173h0.9v4.8H125.8z"></path> <path class="st1" d="M129.7,177.8v-0.4c-0.2,0.3-0.6,0.4-1.1,0.4c-0.6,0-1.2-0.4-1.2-1.1s0.7-1.1,1.2-1.1c0.5,0,0.9,0.1,1.1,0.4 v-0.5c0-0.4-0.3-0.6-0.8-0.6c-0.4,0-0.7,0.1-1,0.4l-0.3-0.6c0.4-0.4,1-0.6,1.5-0.6c0.8,0,1.5,0.3,1.5,1.3v2.2L129.7,177.8 L129.7,177.8z M129.7,176.6c-0.1-0.2-0.4-0.3-0.7-0.3c-0.4,0-0.7,0.2-0.7,0.5s0.3,0.5,0.7,0.5c0.3,0,0.6-0.1,0.7-0.3V176.6 L129.7,176.6z"></path> <path class="st1" d="M131.7,177v-1.8h-0.6v-0.8h0.6v-0.9h0.9v0.9h0.7v0.8h-0.7v1.6c0,0.2,0.1,0.4,0.3,0.4c0.1,0,0.3-0.1,0.3-0.1 l0.2,0.7c-0.1,0.1-0.4,0.2-0.8,0.2C132.1,177.9,131.7,177.6,131.7,177L131.7,177z"></path> <path class="st1" d="M133.9,173.3c0-0.3,0.2-0.6,0.6-0.6s0.6,0.2,0.6,0.6s-0.2,0.6-0.6,0.6S133.9,173.6,133.9,173.3z M134,177.8 v-3.5h0.9v3.5H134z"></path> <path class="st1" d="M136.7,177.8l-1.4-3.5h1l0.9,2.4l0.9-2.4h1l-1.4,3.5H136.7L136.7,177.8z"></path> <path class="st1" d="M141.1,174.2c1,0,1.7,0.8,1.7,1.9v0.2h-2.6c0.1,0.4,0.4,0.8,1,0.8c0.3,0,0.7-0.1,0.9-0.4l0.4,0.6 c-0.4,0.3-0.9,0.5-1.4,0.5c-1.1,0-1.9-0.7-1.9-1.8C139.2,175.1,140,174.2,141.1,174.2L141.1,174.2z M140.2,175.8h1.7 c0-0.3-0.2-0.8-0.9-0.8C140.5,175,140.2,175.4,140.2,175.8L140.2,175.8z"></path> <path class="st1" d="M146.9,174.2c0.7,0,1.1,0.3,1.4,0.6l-0.6,0.6c-0.2-0.2-0.4-0.4-0.7-0.4c-0.6,0-0.9,0.4-0.9,1s0.4,1,0.9,1 c0.3,0,0.6-0.1,0.7-0.4l0.6,0.6c-0.2,0.3-0.7,0.6-1.4,0.6c-1.1,0-1.8-0.8-1.8-1.8S145.9,174.3,146.9,174.2L146.9,174.2z"></path> <path class="st1" d="M148.9,177.8V173h0.9v4.8H148.9z"></path> <path class="st1" d="M152.8,177.8v-0.4c-0.2,0.3-0.6,0.4-1.1,0.4c-0.6,0-1.2-0.4-1.2-1.1s0.7-1.1,1.2-1.1c0.5,0,0.9,0.1,1.1,0.4 v-0.5c0-0.4-0.3-0.6-0.8-0.6c-0.4,0-0.7,0.1-1,0.4l-0.4-0.6c0.4-0.4,1-0.6,1.5-0.6c0.8,0,1.5,0.3,1.5,1.3v2.2L152.8,177.8 L152.8,177.8z M152.8,176.6c-0.1-0.2-0.4-0.3-0.7-0.3c-0.4,0-0.7,0.2-0.7,0.5s0.3,0.5,0.7,0.5c0.3,0,0.6-0.1,0.7-0.3V176.6 L152.8,176.6z"></path> <path class="st1" d="M154.7,176.7c0.2,0.2,0.8,0.5,1.2,0.5c0.4,0,0.6-0.1,0.6-0.4c0-0.2-0.3-0.3-0.7-0.4 c-0.6-0.1-1.4-0.3-1.4-1.1c0-0.6,0.5-1.1,1.4-1.1c0.6,0,1.1,0.2,1.4,0.5l-0.4,0.6c-0.2-0.2-0.6-0.4-1-0.4c-0.3,0-0.6,0.1-0.6,0.3 c0,0.2,0.3,0.3,0.7,0.4c0.6,0.1,1.4,0.3,1.4,1.1c0,0.6-0.5,1.1-1.5,1.1c-0.6,0-1.2-0.2-1.6-0.5L154.7,176.7L154.7,176.7z"></path> <path class="st1" d="M158.1,176.7c0.2,0.2,0.8,0.5,1.2,0.5c0.4,0,0.6-0.1,0.6-0.4c0-0.2-0.3-0.3-0.7-0.4 c-0.6-0.1-1.4-0.3-1.4-1.1c0-0.6,0.5-1.1,1.4-1.1c0.6,0,1.1,0.2,1.4,0.5l-0.4,0.6c-0.2-0.2-0.6-0.4-1-0.4c-0.3,0-0.6,0.1-0.6,0.3 c0,0.2,0.3,0.3,0.7,0.4c0.6,0.1,1.4,0.3,1.4,1.1c0,0.6-0.5,1.1-1.5,1.1c-0.6,0-1.2-0.2-1.6-0.5L158.1,176.7L158.1,176.7z"></path> <path class="st1" d="M161.2,173.3l0.6-0.4c0.7,0.8,1.1,2,1.1,3.2s-0.4,2.4-1.1,3.2l-0.6-0.4c0.5-0.9,0.7-1.7,0.7-2.7 S161.7,174.2,161.2,173.3L161.2,173.3z"></path> </g> <rect x="25.1" y="185.6" class="st2" width="6.2" height="6.2"></rect> <g> <path class="st1" d="M42.2,190.6v-2l-1.8-2.8h1.2l1.2,1.9l1.2-1.9h1.2l-1.8,2.8v2H42.2L42.2,190.6z"></path> <path class="st1" d="M45.4,186.1c0-0.3,0.2-0.6,0.5-0.6s0.5,0.2,0.5,0.6s-0.2,0.6-0.5,0.6S45.4,186.4,45.4,186.1z M45.5,190.6 v-3.5h0.9v3.5H45.5z"></path> <path class="st1" d="M48.9,187.1c1,0,1.7,0.8,1.7,1.9v0.2h-2.6c0.1,0.4,0.4,0.8,1,0.8c0.3,0,0.7-0.1,0.9-0.4l0.4,0.6 c-0.3,0.3-0.9,0.5-1.4,0.5c-1.1,0-1.9-0.7-1.9-1.8C47.1,187.9,47.9,187.1,48.9,187.1L48.9,187.1z M48.1,188.6h1.7 c0-0.3-0.2-0.8-0.9-0.8C48.3,187.8,48.1,188.2,48.1,188.6L48.1,188.6z"></path> <path class="st1" d="M51.3,190.6v-4.8h0.9v4.8H51.3z"></path> <path class="st1" d="M55.5,190.6v-0.4c-0.3,0.3-0.7,0.5-1.1,0.5c-0.9,0-1.5-0.7-1.5-1.8s0.7-1.8,1.5-1.8c0.4,0,0.8,0.2,1.1,0.5 v-1.8h0.9v4.8L55.5,190.6L55.5,190.6z M55.5,188.3c-0.2-0.2-0.5-0.4-0.8-0.4c-0.5,0-0.9,0.4-0.9,1s0.4,1,0.9,1 c0.3,0,0.6-0.2,0.8-0.4V188.3L55.5,188.3z"></path> <path class="st1" d="M59.6,190.6l1.7-3.9h-2.4v-0.9h3.6v0.7l-1.8,4.1L59.6,190.6L59.6,190.6z"></path> <path class="st1" d="M65.9,185.8c0.7,0,1.2,0.5,1.2,1.2s-0.5,1.2-1.2,1.2s-1.2-0.5-1.2-1.2S65.2,185.8,65.9,185.8z M65.9,186.3 c-0.3,0-0.6,0.2-0.6,0.6c0,0.4,0.2,0.6,0.6,0.6s0.6-0.2,0.6-0.6C66.5,186.6,66.3,186.3,65.9,186.3z M65.5,190.6l3.1-4.8h0.6 l-3.1,4.8H65.5z M68.6,188.3c0.7,0,1.2,0.5,1.2,1.2s-0.5,1.2-1.2,1.2s-1.2-0.5-1.2-1.2S67.8,188.3,68.6,188.3z M68.6,188.9 c-0.3,0-0.6,0.2-0.6,0.6s0.2,0.6,0.6,0.6s0.6-0.2,0.6-0.6S68.9,188.9,68.6,188.9z"></path> <path class="st1" d="M73.2,191.9h-0.9v-4.8h0.9v0.4c0.3-0.3,0.7-0.5,1.1-0.5c0.9,0,1.5,0.7,1.5,1.8s-0.7,1.8-1.5,1.8 c-0.4,0-0.8-0.2-1.1-0.5V191.9L73.2,191.9z M74,187.9c-0.3,0-0.6,0.2-0.8,0.4v1.2c0.2,0.2,0.5,0.4,0.8,0.4c0.5,0,0.9-0.4,0.9-1 S74.5,187.9,74,187.9L74,187.9z"></path> <path class="st1" d="M77,189.5c0.3,0,0.6,0.3,0.6,0.6s-0.3,0.6-0.6,0.6s-0.6-0.3-0.6-0.6S76.6,189.5,77,189.5z"></path> <path class="st1" d="M80.4,190.6v-0.4c-0.2,0.3-0.7,0.4-1.1,0.4c-0.6,0-1.2-0.4-1.2-1.1s0.7-1.1,1.2-1.1c0.5,0,0.9,0.1,1.1,0.4 v-0.5c0-0.4-0.3-0.6-0.8-0.6c-0.4,0-0.7,0.1-1,0.4l-0.3-0.6c0.4-0.4,1-0.6,1.5-0.6c0.8,0,1.5,0.3,1.5,1.3v2.2L80.4,190.6 L80.4,190.6z M80.4,189.4c-0.2-0.2-0.4-0.3-0.7-0.3c-0.4,0-0.7,0.2-0.7,0.5s0.3,0.5,0.7,0.5c0.3,0,0.6-0.1,0.7-0.3V189.4 L80.4,189.4z"></path> <path class="st1" d="M82.7,189.5c0.3,0,0.6,0.3,0.6,0.6s-0.3,0.6-0.6,0.6s-0.6-0.3-0.6-0.6S82.4,189.5,82.7,189.5z"></path> <path class="st1" d="M86.9,192.1c-0.7-0.8-1.1-2-1.1-3.2s0.4-2.4,1.1-3.2l0.6,0.4c-0.5,0.9-0.7,1.7-0.7,2.8s0.2,1.9,0.7,2.7 L86.9,192.1L86.9,192.1z"></path> <path class="st1" d="M88.1,190.6v-4.8h2.2c1,0,1.6,0.7,1.6,1.6s-0.6,1.5-1.6,1.5h-1.2v1.7H88.1L88.1,190.6z M90.2,186.7h-1.1v1.3 h1.1c0.4,0,0.7-0.3,0.7-0.7S90.6,186.7,90.2,186.7L90.2,186.7z"></path> <path class="st1" d="M92.6,190.6v-4.8h1v4.8H92.6z"></path> <path class="st1" d="M97.9,190.6l-0.3-0.8h-2.2l-0.3,0.8h-1.1l1.9-4.8h1.3l1.8,4.8H97.9L97.9,190.6z M96.6,186.7l-0.8,2.2h1.6 C97.3,188.9,96.5,186.7,96.6,186.7z"></path> <path class="st1" d="M101.3,190.6v-4.8h1v4.8H101.3z"></path> <path class="st1" d="M104.9,189.3v-0.8h1.7v0.8H104.9z"></path> <path class="st1" d="M110.8,187.1c0.7,0,1.2,0.3,1.4,0.6l-0.6,0.6c-0.2-0.2-0.4-0.4-0.7-0.4c-0.6,0-0.9,0.4-0.9,1s0.4,1,0.9,1 c0.3,0,0.6-0.1,0.7-0.4l0.6,0.6c-0.2,0.3-0.7,0.6-1.4,0.6c-1.1,0-1.8-0.8-1.8-1.8S109.7,187.1,110.8,187.1L110.8,187.1z"></path> <path class="st1" d="M115.1,190.6v-0.4c-0.2,0.3-0.7,0.5-1.2,0.5c-0.8,0-1.1-0.4-1.1-1.1v-2.5h0.9v2.1c0,0.5,0.2,0.6,0.6,0.6 c0.3,0,0.6-0.2,0.8-0.4v-2.4h0.9v3.5H115.1z"></path> <path class="st1" d="M121.2,190.6v-2.2c0-0.3-0.1-0.6-0.5-0.6c-0.3,0-0.6,0.2-0.7,0.4v2.4h-0.9v-2.2c0-0.3-0.1-0.6-0.5-0.6 c-0.3,0-0.6,0.2-0.7,0.4v2.3h-0.9v-3.5h0.9v0.4c0.1-0.2,0.6-0.5,1.1-0.5s0.8,0.2,1,0.6c0.2-0.3,0.7-0.6,1.2-0.6 c0.6,0,1,0.3,1,1.1v2.5L121.2,190.6L121.2,190.6z"></path> <path class="st1" d="M125.4,190.6v-0.4c-0.2,0.3-0.7,0.5-1.2,0.5c-0.8,0-1.1-0.4-1.1-1.1v-2.5h0.9v2.1c0,0.5,0.2,0.6,0.6,0.6 c0.3,0,0.6-0.2,0.8-0.4v-2.4h0.9v3.5H125.4z"></path> <path class="st1" d="M127.2,190.6v-4.8h0.9v4.8H127.2z"></path> <path class="st1" d="M131.1,190.6v-0.4c-0.2,0.3-0.6,0.4-1.1,0.4c-0.6,0-1.2-0.4-1.2-1.1s0.7-1.1,1.2-1.1c0.5,0,0.9,0.1,1.1,0.4 v-0.5c0-0.4-0.3-0.6-0.8-0.6c-0.4,0-0.7,0.1-1,0.4l-0.4-0.6c0.4-0.4,1-0.6,1.5-0.6c0.8,0,1.5,0.3,1.5,1.3v2.2L131.1,190.6 L131.1,190.6z M131.1,189.4c-0.1-0.2-0.4-0.3-0.7-0.3c-0.4,0-0.7,0.2-0.7,0.5s0.3,0.5,0.7,0.5c0.3,0,0.6-0.1,0.7-0.3V189.4 L131.1,189.4z"></path> <path class="st1" d="M133.1,189.8v-1.8h-0.6v-0.8h0.6v-0.9h0.9v0.9h0.7v0.8H134v1.6c0,0.2,0.1,0.4,0.3,0.4c0.1,0,0.3-0.1,0.3-0.1 l0.2,0.7c-0.1,0.1-0.4,0.2-0.8,0.2C133.5,190.7,133.1,190.4,133.1,189.8L133.1,189.8z"></path> <path class="st1" d="M135.3,186.1c0-0.3,0.2-0.6,0.6-0.6s0.6,0.2,0.6,0.6s-0.2,0.6-0.6,0.6S135.3,186.4,135.3,186.1z M135.4,190.6v-3.5h0.9v3.5H135.4z"></path> <path class="st1" d="M138.1,190.6l-1.4-3.5h1l0.9,2.4l0.9-2.4h1l-1.4,3.5H138.1L138.1,190.6z"></path> <path class="st1" d="M142.5,187.1c1,0,1.7,0.8,1.7,1.9v0.2h-2.6c0.1,0.4,0.4,0.8,1,0.8c0.3,0,0.7-0.1,0.9-0.4l0.4,0.6 c-0.4,0.3-0.9,0.5-1.4,0.5c-1.1,0-1.9-0.7-1.9-1.8C140.7,187.9,141.4,187.1,142.5,187.1L142.5,187.1z M141.6,188.6h1.7 c0-0.3-0.2-0.8-0.9-0.8C141.9,187.8,141.6,188.2,141.6,188.6L141.6,188.6z"></path> <path class="st1" d="M148.3,187.1c0.7,0,1.1,0.3,1.4,0.6l-0.6,0.6c-0.2-0.2-0.4-0.4-0.7-0.4c-0.6,0-0.9,0.4-0.9,1s0.4,1,0.9,1 c0.3,0,0.6-0.1,0.7-0.4l0.6,0.6c-0.2,0.3-0.7,0.6-1.4,0.6c-1.1,0-1.8-0.8-1.8-1.8S147.3,187.1,148.3,187.1L148.3,187.1z"></path> <path class="st1" d="M150.3,190.6v-4.8h0.9v4.8H150.3z"></path> <path class="st1" d="M154.2,190.6v-0.4c-0.2,0.3-0.6,0.4-1.1,0.4c-0.6,0-1.2-0.4-1.2-1.1s0.7-1.1,1.2-1.1c0.5,0,0.9,0.1,1.1,0.4 v-0.5c0-0.4-0.3-0.6-0.8-0.6c-0.4,0-0.7,0.1-1,0.4l-0.4-0.6c0.4-0.4,1-0.6,1.5-0.6c0.8,0,1.5,0.3,1.5,1.3v2.2L154.2,190.6 L154.2,190.6z M154.2,189.4c-0.1-0.2-0.4-0.3-0.7-0.3c-0.4,0-0.7,0.2-0.7,0.5s0.3,0.5,0.7,0.5c0.3,0,0.6-0.1,0.7-0.3V189.4 L154.2,189.4z"></path> <path class="st1" d="M156.1,189.5c0.2,0.2,0.8,0.5,1.2,0.5c0.4,0,0.6-0.1,0.6-0.4c0-0.2-0.3-0.3-0.7-0.4 c-0.6-0.1-1.4-0.3-1.4-1.1c0-0.6,0.5-1.1,1.4-1.1c0.6,0,1.1,0.2,1.4,0.5l-0.4,0.6c-0.2-0.2-0.6-0.4-1-0.4c-0.3,0-0.6,0.1-0.6,0.3 c0,0.2,0.3,0.3,0.7,0.4c0.6,0.1,1.4,0.3,1.4,1.1c0,0.6-0.5,1.1-1.5,1.1c-0.6,0-1.2-0.2-1.6-0.5L156.1,189.5L156.1,189.5z"></path> <path class="st1" d="M159.6,189.5c0.2,0.2,0.8,0.5,1.2,0.5c0.4,0,0.6-0.1,0.6-0.4c0-0.2-0.3-0.3-0.7-0.4 c-0.6-0.1-1.4-0.3-1.4-1.1c0-0.6,0.5-1.1,1.4-1.1c0.6,0,1.1,0.2,1.4,0.5l-0.4,0.6c-0.2-0.2-0.6-0.4-1-0.4c-0.3,0-0.6,0.1-0.6,0.3 c0,0.2,0.3,0.3,0.7,0.4c0.6,0.1,1.4,0.3,1.4,1.1c0,0.6-0.5,1.1-1.5,1.1c-0.6,0-1.2-0.2-1.6-0.5L159.6,189.5L159.6,189.5z"></path> <path class="st1" d="M162.6,186.1l0.6-0.4c0.7,0.8,1.1,2,1.1,3.2s-0.4,2.4-1.1,3.2l-0.6-0.4c0.5-0.9,0.7-1.7,0.7-2.7 S163.1,187,162.6,186.1L162.6,186.1z"></path> </g> <g> <path class="st1" d="M215.6,178.4v-2l-1.9-2.8h1.2l1.2,1.9l1.2-1.9h1.2l-1.8,2.8v2H215.6L215.6,178.4z"></path> <path class="st1" d="M218.8,173.9c0-0.3,0.2-0.6,0.6-0.6s0.6,0.2,0.6,0.6s-0.2,0.6-0.6,0.6S218.8,174.2,218.8,173.9z M218.9,178.4v-3.5h0.9v3.5H218.9z"></path> <path class="st1" d="M222.3,174.9c1,0,1.7,0.8,1.7,1.9v0.2h-2.6c0.1,0.4,0.4,0.8,1,0.8c0.3,0,0.7-0.1,0.9-0.4l0.4,0.6 c-0.4,0.3-0.9,0.5-1.4,0.5c-1.1,0-1.9-0.7-1.9-1.8C220.5,175.7,221.2,174.8,222.3,174.9L222.3,174.9z M221.4,176.4h1.7 c0-0.3-0.2-0.8-0.9-0.8C221.7,175.6,221.5,176,221.4,176.4L221.4,176.4z"></path> <path class="st1" d="M224.7,178.4v-4.8h0.9v4.8H224.7z"></path> <path class="st1" d="M228.9,178.4V178c-0.3,0.3-0.7,0.5-1.1,0.5c-0.9,0-1.5-0.7-1.5-1.8s0.7-1.8,1.5-1.8c0.4,0,0.8,0.2,1.1,0.5 v-1.8h0.9v4.8L228.9,178.4L228.9,178.4z M228.9,176.1c-0.2-0.2-0.5-0.4-0.8-0.4c-0.5,0-0.9,0.4-0.9,1s0.4,1,0.9,1 c0.3,0,0.6-0.2,0.8-0.4V176.1L228.9,176.1z"></path> <path class="st1" d="M235.2,175.9c-0.5-0.2-0.9-0.5-0.9-1.1c0-0.9,1-1.3,1.9-1.3s1.9,0.4,1.9,1.3c0,0.6-0.4,0.9-1,1.1 c0.6,0.2,1,0.6,1,1.2c0,0.9-0.9,1.3-1.9,1.3s-1.9-0.4-1.9-1.3C234.2,176.6,234.7,176.1,235.2,175.9L235.2,175.9z M236.1,176.4 c-0.3,0-0.9,0.2-0.9,0.7c0,0.4,0.4,0.6,0.9,0.6s0.9-0.2,0.9-0.6C237,176.6,236.4,176.4,236.1,176.4z M236.1,174.4 c-0.5,0-0.8,0.2-0.8,0.6c0,0.4,0.5,0.5,0.8,0.6c0.3,0,0.8-0.2,0.8-0.6C237,174.6,236.6,174.4,236.1,174.4z"></path> <path class="st1" d="M241.6,173.5c0.7,0,1.2,0.5,1.2,1.2s-0.5,1.2-1.2,1.2s-1.2-0.5-1.2-1.2S240.8,173.5,241.6,173.5z M241.6,174.1c-0.3,0-0.6,0.2-0.6,0.6c0,0.4,0.2,0.6,0.6,0.6s0.6-0.2,0.6-0.6C242.2,174.4,241.9,174.1,241.6,174.1z M241.1,178.4 l3.1-4.8h0.6l-3.1,4.8H241.1L241.1,178.4z M244.2,176.1c0.7,0,1.2,0.5,1.2,1.2s-0.5,1.2-1.2,1.2s-1.2-0.5-1.2-1.2 S243.5,176.1,244.2,176.1z M244.2,176.7c-0.3,0-0.6,0.2-0.6,0.6s0.2,0.6,0.6,0.6s0.6-0.2,0.6-0.6S244.6,176.7,244.2,176.7z"></path> <path class="st1" d="M248.8,179.7h-0.9v-4.8h0.9v0.4c0.3-0.3,0.6-0.5,1.1-0.5c0.9,0,1.5,0.7,1.5,1.8s-0.6,1.8-1.5,1.8 c-0.4,0-0.8-0.2-1.1-0.5V179.7L248.8,179.7z M249.6,175.7c-0.3,0-0.6,0.2-0.8,0.4v1.2c0.1,0.2,0.5,0.4,0.8,0.4 c0.5,0,0.9-0.4,0.9-1S250.2,175.7,249.6,175.7L249.6,175.7z"></path> <path class="st1" d="M252.6,177.3c0.3,0,0.6,0.3,0.6,0.6s-0.3,0.6-0.6,0.6s-0.6-0.3-0.6-0.6S252.3,177.3,252.6,177.3z"></path> <path class="st1" d="M256.1,178.4v-0.4c-0.2,0.3-0.6,0.4-1.1,0.4c-0.6,0-1.2-0.4-1.2-1.1s0.7-1.1,1.2-1.1c0.5,0,0.9,0.1,1.1,0.4 v-0.5c0-0.4-0.3-0.6-0.8-0.6c-0.4,0-0.7,0.1-1,0.4l-0.4-0.6c0.4-0.4,1-0.6,1.5-0.6c0.8,0,1.5,0.3,1.5,1.3v2.2L256.1,178.4 L256.1,178.4z M256.1,177.1c-0.1-0.2-0.4-0.3-0.7-0.3c-0.4,0-0.7,0.2-0.7,0.5s0.3,0.5,0.7,0.5c0.3,0,0.6-0.1,0.7-0.3V177.1 L256.1,177.1z"></path> <path class="st1" d="M258.4,177.3c0.3,0,0.6,0.3,0.6,0.6s-0.3,0.6-0.6,0.6s-0.6-0.3-0.6-0.6S258,177.3,258.4,177.3z"></path> <path class="st1" d="M263.7,178.4v-0.4c-0.2,0.3-0.6,0.4-1.1,0.4c-0.5,0-1.2-0.4-1.2-1.1s0.7-1.1,1.2-1.1c0.5,0,0.9,0.1,1.1,0.4 v-0.5c0-0.4-0.3-0.6-0.8-0.6c-0.4,0-0.7,0.1-1,0.4l-0.4-0.6c0.4-0.4,1-0.6,1.5-0.6c0.8,0,1.5,0.3,1.5,1.3v2.2L263.7,178.4 L263.7,178.4z M263.7,177.1c-0.1-0.2-0.4-0.3-0.7-0.3c-0.4,0-0.7,0.2-0.7,0.5s0.3,0.5,0.7,0.5c0.3,0,0.6-0.1,0.7-0.3V177.1 L263.7,177.1z"></path> <path class="st1" d="M266.6,175.7v2.7h-0.9v-2.7h-0.6v-0.8h0.6v-0.2c0-0.8,0.5-1.2,1.2-1.2c0.3,0,0.5,0.1,0.7,0.1l-0.2,0.6 c-0.1-0.1-0.2-0.1-0.3-0.1c-0.3,0-0.4,0.2-0.4,0.5v0.2h0.7v0.8L266.6,175.7L266.6,175.7z"></path> <path class="st1" d="M268,177.6v-1.8h-0.6v-0.8h0.6V174h0.9v0.9h0.7v0.8h-0.7v1.6c0,0.2,0.1,0.4,0.3,0.4c0.1,0,0.3-0.1,0.3-0.1 l0.2,0.7c-0.1,0.1-0.4,0.2-0.8,0.2C268.4,178.5,268,178.2,268,177.6L268,177.6z"></path> <path class="st1" d="M271.9,174.9c1,0,1.7,0.8,1.7,1.9v0.2H271c0.1,0.4,0.4,0.8,1,0.8c0.3,0,0.7-0.1,0.9-0.4l0.4,0.6 c-0.4,0.3-0.9,0.5-1.4,0.5c-1.1,0-1.9-0.7-1.9-1.8C270.1,175.7,270.8,174.8,271.9,174.9L271.9,174.9z M271,176.4h1.7 c0-0.3-0.2-0.8-0.9-0.8C271.3,175.6,271,176,271,176.4L271,176.4z"></path> <path class="st1" d="M274.3,178.4v-3.5h0.9v0.5c0.2-0.3,0.7-0.6,1.1-0.6v0.9c-0.1,0-0.1,0-0.2,0c-0.3,0-0.7,0.2-0.9,0.4v2.3 L274.3,178.4L274.3,178.4z"></path> <path class="st1" d="M281.8,178.4L281,176l-0.7,2.4h-1l-1.1-3.5h1l0.6,2.3l0.8-2.3h0.8l0.8,2.3l0.6-2.3h1l-1.1,3.5H281.8 L281.8,178.4z"></path> <path class="st1" d="M284.1,173.9c0-0.3,0.2-0.6,0.5-0.6s0.5,0.2,0.5,0.6s-0.2,0.6-0.5,0.6S284.1,174.2,284.1,173.9z M284.2,178.4v-3.5h0.9v3.5H284.2z"></path> <path class="st1" d="M286.2,177.6v-1.8h-0.6v-0.8h0.6V174h0.9v0.9h0.7v0.8h-0.7v1.6c0,0.2,0.1,0.4,0.3,0.4c0.1,0,0.3-0.1,0.3-0.1 l0.2,0.7c-0.1,0.1-0.4,0.2-0.8,0.2C286.6,178.5,286.2,178.2,286.2,177.6L286.2,177.6z"></path> <path class="st1" d="M290.8,178.4v-2.1c0-0.5-0.2-0.6-0.6-0.6c-0.4,0-0.6,0.2-0.8,0.4v2.3h-0.9v-4.8h0.9v1.8 c0.2-0.3,0.7-0.5,1.2-0.5c0.8,0,1.1,0.4,1.1,1.1v2.5H290.8L290.8,178.4z"></path> <path class="st1" d="M295,178.4v-2.1c0-0.5-0.2-0.6-0.6-0.6c-0.4,0-0.6,0.2-0.8,0.4v2.3h-0.9v-4.8h0.9v1.8 c0.2-0.3,0.7-0.5,1.2-0.5c0.8,0,1.1,0.4,1.1,1.1v2.5H295L295,178.4z"></path> <path class="st1" d="M296.6,176.7c0-1,0.7-1.8,1.8-1.8s1.8,0.8,1.8,1.8s-0.7,1.8-1.8,1.8S296.6,177.7,296.6,176.7z M299.4,176.7 c0-0.5-0.3-1-0.9-1s-0.9,0.5-0.9,1s0.3,1,0.9,1S299.4,177.2,299.4,176.7z"></path> <path class="st1" d="M301,178.4v-4.8h0.9v4.8H301z"></path> <path class="st1" d="M305.2,178.4V178c-0.3,0.3-0.7,0.5-1.1,0.5c-0.9,0-1.5-0.7-1.5-1.8s0.7-1.8,1.5-1.8c0.4,0,0.8,0.2,1.1,0.5 v-1.8h0.9v4.8L305.2,178.4L305.2,178.4z M305.2,176.1c-0.2-0.2-0.5-0.4-0.8-0.4c-0.5,0-0.9,0.4-0.9,1s0.4,1,0.9,1 c0.3,0,0.6-0.2,0.8-0.4V176.1L305.2,176.1z"></path> <path class="st1" d="M306.9,173.9c0-0.3,0.2-0.6,0.5-0.6s0.5,0.2,0.5,0.6s-0.2,0.6-0.5,0.6S306.9,174.2,306.9,173.9z M307,178.4 v-3.5h0.9v3.5H307z"></path> <path class="st1" d="M311.2,178.4v-2.1c0-0.5-0.2-0.6-0.6-0.6c-0.4,0-0.6,0.2-0.8,0.4v2.3h-0.9v-3.5h0.9v0.4 c0.2-0.3,0.6-0.5,1.2-0.5c0.8,0,1.1,0.4,1.1,1.1v2.5L311.2,178.4L311.2,178.4z"></path> <path class="st1" d="M313.3,178.6c0.3,0.3,0.6,0.4,1.1,0.4s1-0.2,1-0.9v-0.4c-0.3,0.4-0.6,0.6-1.1,0.6c-0.9,0-1.5-0.6-1.5-1.8 s0.7-1.8,1.5-1.8c0.4,0,0.8,0.2,1.1,0.5v-0.4h0.9v3.2c0,1.3-1,1.6-1.9,1.6c-0.6,0-1.1-0.1-1.5-0.5L313.3,178.6L313.3,178.6z M315.4,176.1c-0.1-0.2-0.5-0.4-0.8-0.4c-0.5,0-0.9,0.4-0.9,1s0.4,1,0.9,1c0.3,0,0.6-0.2,0.8-0.4V176.1L315.4,176.1z"></path> <path class="st1" d="M319.2,177.6v-1.8h-0.6v-0.8h0.6V174h0.9v0.9h0.7v0.8h-0.7v1.6c0,0.2,0.1,0.4,0.3,0.4c0.1,0,0.3-0.1,0.3-0.1 l0.2,0.7c-0.1,0.1-0.4,0.2-0.8,0.2C319.6,178.5,319.2,178.2,319.2,177.6L319.2,177.6z"></path> <path class="st1" d="M323.6,178.4v-0.4c-0.2,0.3-0.6,0.4-1.1,0.4c-0.5,0-1.2-0.4-1.2-1.1s0.7-1.1,1.2-1.1c0.5,0,0.9,0.1,1.1,0.4 v-0.5c0-0.4-0.3-0.6-0.8-0.6c-0.4,0-0.7,0.1-1,0.4l-0.4-0.6c0.4-0.4,1-0.6,1.5-0.6c0.8,0,1.5,0.3,1.5,1.3v2.2L323.6,178.4 L323.6,178.4z M323.6,177.1c-0.1-0.2-0.4-0.3-0.7-0.3c-0.4,0-0.7,0.2-0.7,0.5s0.3,0.5,0.7,0.5c0.3,0,0.6-0.1,0.7-0.3V177.1 L323.6,177.1z"></path> <path class="st1" d="M327.6,178.4l-0.8-1.2l-0.8,1.2h-1l1.2-1.8l-1.2-1.7h1l0.7,1.1l0.7-1.1h1l-1.2,1.7l1.2,1.8H327.6 L327.6,178.4z"></path> <path class="st1" d="M331.9,179.8c-0.7-0.8-1.1-2-1.1-3.2s0.4-2.4,1.1-3.2l0.6,0.4c-0.5,0.9-0.7,1.7-0.7,2.8s0.2,1.9,0.7,2.7 L331.9,179.8L331.9,179.8z"></path> <path class="st1" d="M333,178.4v-4.8h2.2c1,0,1.6,0.7,1.6,1.6s-0.6,1.5-1.6,1.5h-1.2v1.7H333L333,178.4z M335.1,174.5h-1.1v1.3 h1.1c0.4,0,0.7-0.3,0.7-0.7S335.6,174.5,335.1,174.5L335.1,174.5z"></path> <path class="st1" d="M337.5,178.4v-4.8h1v4.8H337.5z"></path> <path class="st1" d="M342.9,178.4l-0.3-0.8h-2.1l-0.3,0.8H339l1.9-4.8h1.3l1.9,4.8H342.9L342.9,178.4z M341.5,174.5l-0.8,2.2h1.6 L341.5,174.5z"></path> <path class="st1" d="M346.3,178.4v-4.8h1v4.8H346.3z"></path> <path class="st1" d="M348.2,178.4v-4.8h1v4.8H348.2z"></path> <path class="st1" d="M351.8,177.1v-0.8h1.7v0.8H351.8z"></path> <path class="st1" d="M358.4,178.4V178c-0.3,0.3-0.7,0.5-1.1,0.5c-0.9,0-1.5-0.7-1.5-1.8s0.7-1.8,1.5-1.8c0.4,0,0.8,0.2,1.1,0.5 v-1.8h0.9v4.8L358.4,178.4L358.4,178.4z M358.4,176.1c-0.2-0.2-0.5-0.4-0.8-0.4c-0.5,0-0.9,0.4-0.9,1s0.4,1,0.9,1 c0.3,0,0.6-0.2,0.8-0.4V176.1L358.4,176.1z"></path> <path class="st1" d="M360.2,173.9c0-0.3,0.2-0.6,0.5-0.6s0.5,0.2,0.5,0.6s-0.2,0.6-0.5,0.6S360.2,174.2,360.2,173.9z M360.3,178.4v-3.5h0.9v3.5H360.3z"></path> <path class="st1" d="M363,178.4l-1.4-3.5h1l0.9,2.4l0.9-2.4h1l-1.4,3.5H363L363,178.4z"></path> <path class="st1" d="M365.7,173.9c0-0.3,0.2-0.6,0.5-0.6s0.5,0.2,0.5,0.6s-0.2,0.6-0.5,0.6S365.7,174.2,365.7,173.9z M365.8,178.4v-3.5h0.9v3.5H365.8z"></path> <path class="st1" d="M370,178.4V178c-0.3,0.3-0.7,0.5-1.1,0.5c-0.9,0-1.5-0.7-1.5-1.8s0.7-1.8,1.5-1.8c0.4,0,0.8,0.2,1.1,0.5 v-1.8h0.9v4.8L370,178.4L370,178.4z M370,176.1c-0.2-0.2-0.5-0.4-0.8-0.4c-0.5,0-0.9,0.4-0.9,1s0.4,1,0.9,1 c0.3,0,0.6-0.2,0.8-0.4V176.1L370,176.1z"></path> <path class="st1" d="M373.4,174.9c1,0,1.7,0.8,1.7,1.9v0.2h-2.6c0.1,0.4,0.4,0.8,1,0.8c0.3,0,0.7-0.1,0.9-0.4l0.4,0.6 c-0.4,0.3-0.9,0.5-1.4,0.5c-1.1,0-1.9-0.7-1.9-1.8C371.6,175.7,372.3,174.8,373.4,174.9L373.4,174.9z M372.5,176.4h1.7 c0-0.3-0.2-0.8-0.9-0.8C372.8,175.6,372.6,176,372.5,176.4L372.5,176.4z"></path> <path class="st1" d="M378.1,178.4v-2.1c0-0.5-0.2-0.6-0.6-0.6c-0.4,0-0.6,0.2-0.8,0.4v2.3h-0.9v-3.5h0.9v0.4 c0.2-0.3,0.6-0.5,1.2-0.5c0.8,0,1.1,0.4,1.1,1.1v2.5L378.1,178.4L378.1,178.4z"></path> <path class="st1" d="M382.4,178.4V178c-0.3,0.3-0.7,0.5-1.1,0.5c-0.9,0-1.5-0.7-1.5-1.8s0.7-1.8,1.5-1.8c0.4,0,0.8,0.2,1.1,0.5 v-1.8h0.9v4.8L382.4,178.4L382.4,178.4z M382.4,176.1c-0.2-0.2-0.5-0.4-0.8-0.4c-0.5,0-0.9,0.4-0.9,1s0.4,1,0.9,1 c0.3,0,0.6-0.2,0.8-0.4V176.1L382.4,176.1z"></path> <path class="st1" d="M387.7,174.9c0.7,0,1.1,0.3,1.4,0.6l-0.6,0.6c-0.2-0.2-0.4-0.4-0.7-0.4c-0.5,0-0.9,0.4-0.9,1s0.4,1,0.9,1 c0.3,0,0.6-0.1,0.7-0.4l0.6,0.6c-0.2,0.3-0.7,0.6-1.4,0.6c-1.1,0-1.8-0.8-1.8-1.8S386.6,174.9,387.7,174.9L387.7,174.9z"></path> <path class="st1" d="M389.6,178.4v-4.8h0.9v4.8H389.6z"></path> <path class="st1" d="M393.5,178.4v-0.4c-0.2,0.3-0.6,0.4-1.1,0.4c-0.5,0-1.2-0.4-1.2-1.1s0.7-1.1,1.2-1.1c0.5,0,0.9,0.1,1.1,0.4 v-0.5c0-0.4-0.3-0.6-0.8-0.6c-0.4,0-0.7,0.1-1,0.4l-0.4-0.6c0.4-0.4,1-0.6,1.5-0.6c0.8,0,1.5,0.3,1.5,1.3v2.2L393.5,178.4 L393.5,178.4z M393.5,177.1c-0.1-0.2-0.4-0.3-0.7-0.3c-0.4,0-0.7,0.2-0.7,0.5s0.3,0.5,0.7,0.5c0.3,0,0.6-0.1,0.7-0.3V177.1 L393.5,177.1z"></path> <path class="st1" d="M395.5,177.3c0.2,0.2,0.8,0.5,1.2,0.5c0.4,0,0.6-0.1,0.6-0.4c0-0.2-0.3-0.3-0.7-0.4 c-0.6-0.1-1.4-0.3-1.4-1.1c0-0.6,0.5-1.1,1.4-1.1c0.6,0,1.1,0.2,1.4,0.5l-0.4,0.6c-0.2-0.2-0.6-0.4-1-0.4c-0.3,0-0.5,0.1-0.5,0.3 c0,0.2,0.3,0.3,0.7,0.4c0.6,0.1,1.4,0.3,1.4,1.1c0,0.6-0.5,1.1-1.5,1.1c-0.6,0-1.2-0.2-1.6-0.5L395.5,177.3L395.5,177.3z"></path> <path class="st1" d="M398.9,177.3c0.2,0.2,0.8,0.5,1.2,0.5c0.4,0,0.6-0.1,0.6-0.4c0-0.2-0.3-0.3-0.7-0.4 c-0.6-0.1-1.4-0.3-1.4-1.1c0-0.6,0.5-1.1,1.4-1.1c0.6,0,1.1,0.2,1.4,0.5l-0.4,0.6c-0.2-0.2-0.6-0.4-1-0.4c-0.3,0-0.5,0.1-0.5,0.3 c0,0.2,0.3,0.3,0.7,0.4c0.6,0.1,1.4,0.3,1.4,1.1c0,0.6-0.5,1.1-1.5,1.1c-0.6,0-1.2-0.2-1.6-0.5L398.9,177.3L398.9,177.3z"></path> <path class="st1" d="M401.9,173.9l0.6-0.4c0.7,0.8,1.1,2,1.1,3.2s-0.5,2.4-1.1,3.2l-0.6-0.4c0.5-0.9,0.7-1.7,0.7-2.7 S402.4,174.8,401.9,173.9L401.9,173.9z"></path> </g> <g> <path class="st1" d="M215.6,191.2v-2l-1.9-2.8h1.2l1.2,1.9l1.2-1.9h1.2l-1.8,2.8v2H215.6L215.6,191.2z"></path> <path class="st1" d="M218.8,186.7c0-0.3,0.2-0.6,0.6-0.6s0.6,0.2,0.6,0.6s-0.2,0.6-0.6,0.6S218.8,187,218.8,186.7z M218.9,191.2 v-3.5h0.9v3.5H218.9z"></path> <path class="st1" d="M222.3,187.6c1,0,1.7,0.8,1.7,1.9v0.2h-2.6c0.1,0.4,0.4,0.8,1,0.8c0.3,0,0.7-0.1,0.9-0.4l0.4,0.6 c-0.4,0.3-0.9,0.5-1.4,0.5c-1.1,0-1.9-0.7-1.9-1.8C220.5,188.5,221.2,187.6,222.3,187.6L222.3,187.6z M221.4,189.1h1.7 c0-0.3-0.2-0.8-0.9-0.8C221.7,188.4,221.5,188.8,221.4,189.1L221.4,189.1z"></path> <path class="st1" d="M224.7,191.2v-4.8h0.9v4.8H224.7z"></path> <path class="st1" d="M228.9,191.2v-0.4c-0.3,0.3-0.7,0.5-1.1,0.5c-0.9,0-1.5-0.7-1.5-1.8s0.7-1.8,1.5-1.8c0.4,0,0.8,0.2,1.1,0.5 v-1.8h0.9v4.8L228.9,191.2L228.9,191.2z M228.9,188.9c-0.2-0.2-0.5-0.4-0.8-0.4c-0.5,0-0.9,0.4-0.9,1s0.4,1,0.9,1 c0.3,0,0.6-0.2,0.8-0.4V188.9L228.9,188.9z"></path> <path class="st1" d="M233,191.2l1.7-3.9h-2.4v-0.9h3.6v0.7l-1.8,4.1L233,191.2L233,191.2z"></path> <path class="st1" d="M239.3,186.3c0.7,0,1.2,0.5,1.2,1.2s-0.5,1.2-1.2,1.2s-1.2-0.5-1.2-1.2S238.5,186.3,239.3,186.3z M239.3,186.9c-0.3,0-0.6,0.2-0.6,0.6c0,0.4,0.2,0.6,0.6,0.6s0.6-0.2,0.6-0.6C239.9,187.2,239.6,186.9,239.3,186.9z M238.8,191.2 l3.1-4.8h0.6l-3.1,4.8H238.8L238.8,191.2z M241.9,188.9c0.7,0,1.2,0.5,1.2,1.2s-0.5,1.2-1.2,1.2s-1.2-0.5-1.2-1.2 S241.2,188.9,241.9,188.9z M241.9,189.5c-0.3,0-0.6,0.2-0.6,0.6s0.2,0.6,0.6,0.6s0.6-0.2,0.6-0.6S242.3,189.5,241.9,189.5z"></path> <path class="st1" d="M246.6,192.5h-0.9v-4.8h0.9v0.4c0.3-0.3,0.6-0.5,1.1-0.5c0.9,0,1.5,0.7,1.5,1.8s-0.6,1.8-1.5,1.8 c-0.4,0-0.8-0.2-1.1-0.5V192.5L246.6,192.5z M247.3,188.5c-0.3,0-0.6,0.2-0.8,0.4v1.2c0.1,0.2,0.5,0.4,0.8,0.4 c0.5,0,0.9-0.4,0.9-1S247.9,188.5,247.3,188.5L247.3,188.5z"></path> <path class="st1" d="M250.3,190.1c0.3,0,0.6,0.3,0.6,0.6s-0.3,0.6-0.6,0.6s-0.6-0.3-0.6-0.6S250,190.1,250.3,190.1z"></path> <path class="st1" d="M253.8,191.2v-0.4c-0.2,0.3-0.6,0.4-1.1,0.4c-0.6,0-1.2-0.4-1.2-1.1s0.7-1.1,1.2-1.1c0.5,0,0.9,0.1,1.1,0.4 V189c0-0.4-0.3-0.6-0.8-0.6c-0.4,0-0.7,0.1-1,0.4l-0.4-0.6c0.4-0.4,1-0.6,1.5-0.6c0.8,0,1.5,0.3,1.5,1.3v2.2L253.8,191.2 L253.8,191.2z M253.8,189.9c-0.1-0.2-0.4-0.3-0.7-0.3c-0.4,0-0.7,0.2-0.7,0.5s0.3,0.5,0.7,0.5c0.3,0,0.6-0.1,0.7-0.3V189.9 L253.8,189.9z"></path> <path class="st1" d="M256.1,190.1c0.3,0,0.6,0.3,0.6,0.6s-0.3,0.6-0.6,0.6s-0.6-0.3-0.6-0.6S255.8,190.1,256.1,190.1z"></path> <path class="st1" d="M261.4,191.2v-0.4c-0.2,0.3-0.6,0.4-1.1,0.4c-0.5,0-1.2-0.4-1.2-1.1s0.7-1.1,1.2-1.1c0.5,0,0.9,0.1,1.1,0.4 V189c0-0.4-0.3-0.6-0.8-0.6c-0.4,0-0.7,0.1-1,0.4l-0.4-0.6c0.4-0.4,1-0.6,1.5-0.6c0.8,0,1.5,0.3,1.5,1.3v2.2L261.4,191.2 L261.4,191.2z M261.4,189.9c-0.1-0.2-0.4-0.3-0.7-0.3c-0.4,0-0.7,0.2-0.7,0.5s0.3,0.5,0.7,0.5c0.3,0,0.6-0.1,0.7-0.3V189.9 L261.4,189.9z"></path> <path class="st1" d="M264.3,188.5v2.7h-0.9v-2.7h-0.6v-0.8h0.6v-0.2c0-0.8,0.5-1.2,1.2-1.2c0.3,0,0.5,0.1,0.7,0.1l-0.2,0.6 c-0.1-0.1-0.2-0.1-0.3-0.1c-0.3,0-0.4,0.2-0.4,0.5v0.2h0.7v0.8L264.3,188.5L264.3,188.5z"></path> <path class="st1" d="M265.7,190.4v-1.8h-0.6v-0.8h0.6v-0.9h0.9v0.9h0.7v0.8h-0.7v1.6c0,0.2,0.1,0.4,0.3,0.4 c0.1,0,0.3-0.1,0.3-0.1l0.2,0.7c-0.1,0.1-0.4,0.2-0.8,0.2C266.1,191.3,265.7,191,265.7,190.4L265.7,190.4z"></path> <path class="st1" d="M269.6,187.6c1,0,1.7,0.8,1.7,1.9v0.2h-2.6c0.1,0.4,0.4,0.8,1,0.8c0.3,0,0.7-0.1,0.9-0.4l0.4,0.6 c-0.4,0.3-0.9,0.5-1.4,0.5c-1.1,0-1.9-0.7-1.9-1.8C267.8,188.5,268.5,187.6,269.6,187.6L269.6,187.6z M268.7,189.1h1.7 c0-0.3-0.2-0.8-0.9-0.8C269,188.4,268.8,188.8,268.7,189.1L268.7,189.1z"></path> <path class="st1" d="M272,191.2v-3.5h0.9v0.5c0.2-0.3,0.7-0.6,1.1-0.6v0.9c-0.1,0-0.1,0-0.2,0c-0.3,0-0.7,0.2-0.9,0.4v2.3 L272,191.2L272,191.2z"></path> <path class="st1" d="M279.5,191.2l-0.7-2.4l-0.7,2.4h-1l-1.1-3.5h1l0.6,2.3l0.8-2.3h0.8l0.8,2.3l0.6-2.3h1l-1.1,3.5H279.5z"></path> <path class="st1" d="M281.9,186.7c0-0.3,0.2-0.6,0.5-0.6s0.5,0.2,0.5,0.6s-0.2,0.6-0.5,0.6S281.9,187,281.9,186.7z M281.9,191.2 v-3.5h0.9v3.5H281.9z"></path> <path class="st1" d="M284,190.4v-1.8h-0.6v-0.8h0.6v-0.9h0.9v0.9h0.7v0.8h-0.7v1.6c0,0.2,0.1,0.4,0.3,0.4c0.1,0,0.3-0.1,0.3-0.1 l0.2,0.7c-0.1,0.1-0.4,0.2-0.8,0.2C284.3,191.3,284,191,284,190.4L284,190.4z"></path> <path class="st1" d="M288.6,191.2v-2.1c0-0.5-0.2-0.6-0.6-0.6c-0.4,0-0.6,0.2-0.8,0.4v2.3h-0.9v-4.8h0.9v1.8 c0.2-0.3,0.7-0.5,1.2-0.5c0.8,0,1.1,0.4,1.1,1.1v2.5H288.6z"></path> <path class="st1" d="M292.7,191.2v-2.1c0-0.5-0.2-0.6-0.6-0.6c-0.4,0-0.6,0.2-0.8,0.4v2.3h-0.9v-4.8h0.9v1.8 c0.2-0.3,0.7-0.5,1.2-0.5c0.8,0,1.1,0.4,1.1,1.1v2.5H292.7z"></path> <path class="st1" d="M294.3,189.5c0-1,0.7-1.8,1.8-1.8s1.8,0.8,1.8,1.8s-0.7,1.8-1.8,1.8S294.3,190.5,294.3,189.5z M297.1,189.5 c0-0.5-0.3-1-0.9-1s-0.9,0.5-0.9,1s0.3,1,0.9,1S297.1,190,297.1,189.5z"></path> <path class="st1" d="M298.7,191.2v-4.8h0.9v4.8H298.7z"></path> <path class="st1" d="M302.9,191.2v-0.4c-0.3,0.3-0.7,0.5-1.1,0.5c-0.9,0-1.5-0.7-1.5-1.8s0.7-1.8,1.5-1.8c0.4,0,0.8,0.2,1.1,0.5 v-1.8h0.9v4.8L302.9,191.2L302.9,191.2z M302.9,188.9c-0.2-0.2-0.5-0.4-0.8-0.4c-0.5,0-0.9,0.4-0.9,1s0.4,1,0.9,1 c0.3,0,0.6-0.2,0.8-0.4V188.9L302.9,188.9z"></path> <path class="st1" d="M304.6,186.7c0-0.3,0.2-0.6,0.5-0.6s0.5,0.2,0.5,0.6s-0.2,0.6-0.5,0.6S304.6,187,304.6,186.7z M304.7,191.2 v-3.5h0.9v3.5H304.7z"></path> <path class="st1" d="M308.9,191.2v-2.1c0-0.5-0.2-0.6-0.6-0.6c-0.4,0-0.6,0.2-0.8,0.4v2.3h-0.9v-3.5h0.9v0.4 c0.2-0.3,0.6-0.5,1.2-0.5c0.8,0,1.1,0.4,1.1,1.1v2.5L308.9,191.2L308.9,191.2z"></path> <path class="st1" d="M311.1,191.4c0.3,0.3,0.6,0.4,1.1,0.4s1-0.2,1-0.9v-0.4c-0.3,0.4-0.6,0.6-1.1,0.6c-0.9,0-1.5-0.6-1.5-1.8 s0.7-1.8,1.5-1.8c0.4,0,0.8,0.2,1.1,0.5v-0.4h0.9v3.2c0,1.3-1,1.6-1.9,1.6c-0.6,0-1.1-0.1-1.5-0.5L311.1,191.4L311.1,191.4z M313.1,188.9c-0.1-0.2-0.5-0.4-0.8-0.4c-0.5,0-0.9,0.4-0.9,1s0.4,1,0.9,1c0.3,0,0.6-0.2,0.8-0.4V188.9L313.1,188.9z"></path> <path class="st1" d="M317,190.4v-1.8h-0.6v-0.8h0.6v-0.9h0.9v0.9h0.7v0.8h-0.7v1.6c0,0.2,0.1,0.4,0.3,0.4c0.1,0,0.3-0.1,0.3-0.1 l0.2,0.7c-0.1,0.1-0.4,0.2-0.8,0.2C317.3,191.3,317,191,317,190.4L317,190.4z"></path> <path class="st1" d="M321.3,191.2v-0.4c-0.2,0.3-0.6,0.4-1.1,0.4c-0.5,0-1.2-0.4-1.2-1.1s0.7-1.1,1.2-1.1c0.5,0,0.9,0.1,1.1,0.4 V189c0-0.4-0.3-0.6-0.8-0.6c-0.4,0-0.7,0.1-1,0.4l-0.4-0.6c0.4-0.4,1-0.6,1.5-0.6c0.8,0,1.5,0.3,1.5,1.3v2.2L321.3,191.2 L321.3,191.2z M321.3,189.9c-0.1-0.2-0.4-0.3-0.7-0.3c-0.4,0-0.7,0.2-0.7,0.5s0.3,0.5,0.7,0.5c0.3,0,0.6-0.1,0.7-0.3V189.9 L321.3,189.9z"></path> <path class="st1" d="M325.3,191.2l-0.8-1.2l-0.8,1.2h-1l1.2-1.8l-1.2-1.7h1l0.7,1.1l0.7-1.1h1l-1.2,1.7l1.2,1.8H325.3 L325.3,191.2z"></path> <path class="st1" d="M329.6,192.6c-0.7-0.8-1.1-2-1.1-3.2s0.4-2.4,1.1-3.2l0.6,0.4c-0.5,0.9-0.7,1.7-0.7,2.8s0.2,1.9,0.7,2.7 L329.6,192.6L329.6,192.6z"></path> <path class="st1" d="M330.8,191.2v-4.8h2.2c1,0,1.6,0.7,1.6,1.6s-0.6,1.5-1.6,1.5h-1.2v1.7H330.8L330.8,191.2z M332.9,187.3h-1.1 v1.3h1.1c0.4,0,0.7-0.3,0.7-0.7S333.3,187.3,332.9,187.3L332.9,187.3z"></path> <path class="st1" d="M335.2,191.2v-4.8h1v4.8H335.2z"></path> <path class="st1" d="M340.6,191.2l-0.3-0.8h-2.1l-0.3,0.8h-1.1l1.9-4.8h1.3l1.9,4.8H340.6L340.6,191.2z M339.2,187.3l-0.8,2.2 h1.6L339.2,187.3z"></path> <path class="st1" d="M344,191.2v-4.8h1v4.8H344z"></path> <path class="st1" d="M346,191.2v-4.8h1v4.8H346z"></path> <path class="st1" d="M349.5,189.9v-0.8h1.7v0.8H349.5z"></path> <path class="st1" d="M356.1,191.2v-0.4c-0.3,0.3-0.7,0.5-1.1,0.5c-0.9,0-1.5-0.7-1.5-1.8s0.7-1.8,1.5-1.8c0.4,0,0.8,0.2,1.1,0.5 v-1.8h0.9v4.8L356.1,191.2L356.1,191.2z M356.1,188.9c-0.2-0.2-0.5-0.4-0.8-0.4c-0.5,0-0.9,0.4-0.9,1s0.4,1,0.9,1 c0.3,0,0.6-0.2,0.8-0.4V188.9L356.1,188.9z"></path> <path class="st1" d="M357.9,186.7c0-0.3,0.2-0.6,0.5-0.6s0.5,0.2,0.5,0.6s-0.2,0.6-0.5,0.6S357.9,187,357.9,186.7z M358,191.2 v-3.5h0.9v3.5H358z"></path> <path class="st1" d="M360.7,191.2l-1.4-3.5h1l0.9,2.4l0.9-2.4h1l-1.4,3.5H360.7L360.7,191.2z"></path> <path class="st1" d="M363.4,186.7c0-0.3,0.2-0.6,0.5-0.6s0.5,0.2,0.5,0.6s-0.2,0.6-0.5,0.6S363.4,187,363.4,186.7z M363.5,191.2 v-3.5h0.9v3.5H363.5z"></path> <path class="st1" d="M367.7,191.2v-0.4c-0.3,0.3-0.7,0.5-1.1,0.5c-0.9,0-1.5-0.7-1.5-1.8s0.7-1.8,1.5-1.8c0.4,0,0.8,0.2,1.1,0.5 v-1.8h0.9v4.8L367.7,191.2L367.7,191.2z M367.7,188.9c-0.2-0.2-0.5-0.4-0.8-0.4c-0.5,0-0.9,0.4-0.9,1s0.4,1,0.9,1 c0.3,0,0.6-0.2,0.8-0.4V188.9L367.7,188.9z"></path> <path class="st1" d="M371.1,187.6c1,0,1.7,0.8,1.7,1.9v0.2h-2.6c0.1,0.4,0.4,0.8,1,0.8c0.3,0,0.7-0.1,0.9-0.4l0.4,0.6 c-0.4,0.3-0.9,0.5-1.4,0.5c-1.1,0-1.9-0.7-1.9-1.8C369.3,188.5,370,187.6,371.1,187.6L371.1,187.6z M370.3,189.1h1.7 c0-0.3-0.2-0.8-0.9-0.8C370.5,188.4,370.3,188.8,370.3,189.1L370.3,189.1z"></path> <path class="st1" d="M375.9,191.2v-2.1c0-0.5-0.2-0.6-0.6-0.6c-0.4,0-0.6,0.2-0.8,0.4v2.3h-0.9v-3.5h0.9v0.4 c0.2-0.3,0.6-0.5,1.2-0.5c0.8,0,1.1,0.4,1.1,1.1v2.5L375.9,191.2L375.9,191.2z"></path> <path class="st1" d="M380.1,191.2v-0.4c-0.3,0.3-0.7,0.5-1.1,0.5c-0.9,0-1.5-0.7-1.5-1.8s0.7-1.8,1.5-1.8c0.4,0,0.8,0.2,1.1,0.5 v-1.8h0.9v4.8L380.1,191.2L380.1,191.2z M380.1,188.9c-0.2-0.2-0.5-0.4-0.8-0.4c-0.5,0-0.9,0.4-0.9,1s0.4,1,0.9,1 c0.3,0,0.6-0.2,0.8-0.4V188.9L380.1,188.9z"></path> <path class="st1" d="M385.4,187.6c0.7,0,1.1,0.3,1.4,0.6l-0.6,0.6c-0.2-0.2-0.4-0.4-0.7-0.4c-0.5,0-0.9,0.4-0.9,1s0.4,1,0.9,1 c0.3,0,0.6-0.1,0.7-0.4l0.6,0.6c-0.2,0.3-0.7,0.6-1.4,0.6c-1.1,0-1.8-0.8-1.8-1.8S384.3,187.7,385.4,187.6L385.4,187.6z"></path> <path class="st1" d="M387.4,191.2v-4.8h0.9v4.8H387.4z"></path> <path class="st1" d="M391.3,191.2v-0.4c-0.2,0.3-0.6,0.4-1.1,0.4c-0.5,0-1.2-0.4-1.2-1.1s0.7-1.1,1.2-1.1c0.5,0,0.9,0.1,1.1,0.4 V189c0-0.4-0.3-0.6-0.8-0.6c-0.4,0-0.7,0.1-1,0.4l-0.4-0.6c0.4-0.4,1-0.6,1.5-0.6c0.8,0,1.5,0.3,1.5,1.3v2.2L391.3,191.2 L391.3,191.2z M391.3,189.9c-0.1-0.2-0.4-0.3-0.7-0.3c-0.4,0-0.7,0.2-0.7,0.5s0.3,0.5,0.7,0.5c0.3,0,0.6-0.1,0.7-0.3V189.9 L391.3,189.9z"></path> <path class="st1" d="M393.2,190.1c0.2,0.2,0.8,0.5,1.2,0.5c0.4,0,0.6-0.1,0.6-0.4c0-0.2-0.3-0.3-0.7-0.4 c-0.6-0.1-1.4-0.3-1.4-1.1c0-0.6,0.5-1.1,1.4-1.1c0.6,0,1.1,0.2,1.4,0.5l-0.4,0.6c-0.2-0.2-0.6-0.4-1-0.4c-0.3,0-0.5,0.1-0.5,0.3 c0,0.2,0.3,0.3,0.7,0.4c0.6,0.1,1.4,0.3,1.4,1.1c0,0.6-0.5,1.1-1.5,1.1c-0.6,0-1.2-0.2-1.6-0.5L393.2,190.1L393.2,190.1z"></path> <path class="st1" d="M396.6,190.1c0.2,0.2,0.8,0.5,1.2,0.5c0.4,0,0.6-0.1,0.6-0.4c0-0.2-0.3-0.3-0.7-0.4 c-0.6-0.1-1.4-0.3-1.4-1.1c0-0.6,0.5-1.1,1.4-1.1c0.6,0,1.1,0.2,1.4,0.5l-0.4,0.6c-0.2-0.2-0.6-0.4-1-0.4c-0.3,0-0.5,0.1-0.5,0.3 c0,0.2,0.3,0.3,0.7,0.4c0.6,0.1,1.4,0.3,1.4,1.1c0,0.6-0.5,1.1-1.5,1.1c-0.6,0-1.2-0.2-1.6-0.5L396.6,190.1L396.6,190.1z"></path> <path class="st1" d="M399.6,186.7l0.6-0.4c0.7,0.8,1.1,2,1.1,3.2s-0.5,2.4-1.1,3.2l-0.6-0.4c0.5-0.9,0.7-1.7,0.7-2.7 S400.1,187.6,399.6,186.7L399.6,186.7z"></path> </g> <line class="st3" x1="188.7" y1="175.9" x2="205.4" y2="176.1"></line> <line class="st4" x1="188.7" y1="188.9" x2="205.4" y2="189"></line> <g> <path d="M171.9,8.4l-2.1-5.7h1.2l1.4,4.2l1.4-4.2h1.2l-2.1,5.7H171.9L171.9,8.4z"></path> <path d="M176.6,5.5l-1-0.2c0.1-0.4,0.3-0.7,0.6-0.9s0.7-0.3,1.2-0.3c0.5,0,0.9,0.1,1.1,0.2c0.2,0.1,0.4,0.3,0.5,0.4 s0.1,0.5,0.1,1v1.3c0,0.4,0,0.6,0,0.8s0.1,0.4,0.2,0.6h-1.1c0-0.1-0.1-0.2-0.1-0.3c0-0.1,0-0.1,0-0.1c-0.2,0.2-0.4,0.3-0.6,0.4 s-0.4,0.1-0.7,0.1c-0.4,0-0.8-0.1-1-0.4s-0.4-0.5-0.4-0.9c0-0.2,0.1-0.4,0.2-0.6c0.1-0.2,0.3-0.3,0.5-0.4s0.5-0.2,0.9-0.3 c0.5-0.1,0.9-0.2,1.1-0.3V5.6c0-0.2-0.1-0.4-0.2-0.4c-0.1-0.1-0.3-0.1-0.6-0.1c-0.2,0-0.4,0-0.5,0.1S176.6,5.3,176.6,5.5 L176.6,5.5z M178,6.4c-0.1,0.1-0.4,0.1-0.7,0.2s-0.5,0.1-0.6,0.2c-0.1,0.1-0.2,0.2-0.2,0.4s0.1,0.3,0.2,0.4 c0.1,0.1,0.3,0.2,0.4,0.2c0.2,0,0.4-0.1,0.6-0.2c0.1-0.1,0.2-0.2,0.3-0.4c0-0.1,0-0.3,0-0.5L178,6.4L178,6.4z"></path> <path d="M180.2,8.4V2.7h1.1v5.7H180.2z"></path> <path d="M185.1,8.4V7.8c-0.1,0.2-0.4,0.4-0.6,0.5s-0.5,0.2-0.8,0.2s-0.5-0.1-0.8-0.2s-0.4-0.3-0.5-0.5c-0.1-0.2-0.1-0.5-0.1-0.9 V4.3h1.1v1.9c0,0.6,0,0.9,0.1,1.1s0.1,0.2,0.2,0.3c0.1,0.1,0.2,0.1,0.4,0.1c0.2,0,0.4-0.1,0.5-0.2s0.2-0.2,0.3-0.4 s0.1-0.5,0.1-1.1V4.3h1.1v4.1L185.1,8.4L185.1,8.4z"></path> <path d="M189.7,7.1l1.1,0.2c-0.1,0.4-0.4,0.7-0.7,0.9c-0.3,0.2-0.7,0.3-1.1,0.3c-0.7,0-1.2-0.2-1.6-0.7C187.1,7.4,187,7,187,6.4 c0-0.7,0.2-1.2,0.5-1.6s0.8-0.6,1.4-0.6c0.6,0,1.1,0.2,1.5,0.6c0.4,0.4,0.5,1,0.5,1.9h-2.8c0,0.3,0.1,0.6,0.3,0.8 c0.2,0.2,0.4,0.3,0.6,0.3c0.2,0,0.3-0.1,0.4-0.1S189.6,7.3,189.7,7.1L189.7,7.1z M189.8,6c0-0.3-0.1-0.6-0.2-0.7S189.2,5,188.9,5 c-0.2,0-0.4,0.1-0.6,0.3s-0.2,0.4-0.2,0.7H189.8z"></path> <path d="M193.7,6.3c0-0.4,0.1-0.7,0.3-1.1s0.4-0.6,0.8-0.8c0.3-0.2,0.7-0.3,1.1-0.3c0.6,0,1.1,0.2,1.5,0.6 c0.4,0.4,0.6,0.9,0.6,1.5s-0.2,1.2-0.6,1.6c-0.4,0.4-0.9,0.6-1.5,0.6c-0.4,0-0.7-0.1-1.1-0.3c-0.3-0.2-0.6-0.4-0.8-0.8 S193.7,6.8,193.7,6.3L193.7,6.3z M194.8,6.3c0,0.4,0.1,0.7,0.3,0.9s0.4,0.3,0.7,0.3s0.5-0.1,0.7-0.3s0.3-0.5,0.3-0.9 s-0.1-0.7-0.3-0.9c-0.2-0.2-0.4-0.3-0.7-0.3s-0.5,0.1-0.7,0.3S194.8,5.9,194.8,6.3L194.8,6.3z"></path> <path d="M198.4,4.3h0.6V4c0-0.3,0-0.6,0.1-0.8s0.2-0.3,0.4-0.4s0.4-0.2,0.8-0.2s0.6,0,0.9,0.1L201,3.5c-0.2,0-0.3-0.1-0.5-0.1 s-0.3,0-0.3,0.1c-0.1,0.1-0.1,0.2-0.1,0.4v0.3h0.8v0.9h-0.8v3.3H199V5.1h-0.6L198.4,4.3L198.4,4.3z"></path> <path d="M203.8,8.4V2.7h1.9c0.7,0,1.2,0,1.4,0.1c0.3,0.1,0.6,0.3,0.8,0.6s0.3,0.7,0.3,1.1c0,0.3-0.1,0.7-0.2,0.9 s-0.3,0.4-0.5,0.6c-0.2,0.1-0.4,0.2-0.6,0.3c-0.3,0.1-0.7,0.1-1.2,0.1h-0.8v2.2H203.8z M204.9,3.7v1.6h0.6c0.5,0,0.8,0,0.9-0.1 c0.1-0.1,0.3-0.2,0.4-0.3s0.1-0.3,0.1-0.4c0-0.2-0.1-0.4-0.2-0.5c-0.1-0.1-0.3-0.2-0.5-0.2c-0.1,0-0.4,0-0.8,0L204.9,3.7 L204.9,3.7z"></path> <path d="M209.1,8.4V2.7h1.2v5.7H209.1z"></path> <path d="M216.5,8.4h-1.3l-0.5-1.3h-2.3L212,8.4h-1.2l2.2-5.7h1.2L216.5,8.4L216.5,8.4z M214.3,6.2L213.6,4l-0.8,2.1H214.3z"></path> <path d="M219.3,8.4V2.7h1.2v5.7H219.3z"></path> <path d="M224.6,5.5l-1-0.2c0.1-0.4,0.3-0.7,0.6-0.9s0.7-0.3,1.2-0.3c0.5,0,0.9,0.1,1.1,0.2c0.2,0.1,0.4,0.3,0.5,0.4 s0.1,0.5,0.1,1v1.3c0,0.4,0,0.6,0,0.8s0.1,0.4,0.2,0.6h-1.1c0-0.1-0.1-0.2-0.1-0.3c0-0.1,0-0.1,0-0.1c-0.2,0.2-0.4,0.3-0.6,0.4 s-0.4,0.1-0.7,0.1c-0.4,0-0.8-0.1-1-0.4s-0.4-0.5-0.4-0.9c0-0.2,0.1-0.4,0.2-0.6c0.1-0.2,0.3-0.3,0.5-0.4s0.5-0.2,0.9-0.3 c0.5-0.1,0.9-0.2,1.1-0.3V5.6c0-0.2-0.1-0.4-0.2-0.4c-0.1-0.1-0.3-0.1-0.6-0.1c-0.2,0-0.4,0-0.5,0.1S224.6,5.3,224.6,5.5 L224.6,5.5z M226,6.4c-0.1,0.1-0.4,0.1-0.7,0.2s-0.5,0.1-0.6,0.2c-0.1,0.1-0.2,0.2-0.2,0.4s0.1,0.3,0.2,0.4 c0.1,0.1,0.3,0.2,0.4,0.2c0.2,0,0.4-0.1,0.6-0.2c0.1-0.1,0.2-0.2,0.3-0.4c0-0.1,0-0.3,0-0.5L226,6.4L226,6.4z"></path> <path d="M232,8.4h-1.1V6.3c0-0.4,0-0.7-0.1-0.9s-0.1-0.2-0.2-0.3S230.3,5,230.2,5c-0.2,0-0.4,0.1-0.5,0.2 c-0.1,0.1-0.2,0.2-0.3,0.4s-0.1,0.5-0.1,0.9v1.9h-1.1V4.3h1v0.6c0.4-0.5,0.8-0.7,1.4-0.7c0.2,0,0.5,0,0.7,0.1s0.4,0.2,0.5,0.3 c0.1,0.1,0.2,0.3,0.2,0.5c0,0.2,0.1,0.4,0.1,0.7V8.4z"></path> <path d="M236.9,8.4h-1V7.8c-0.2,0.2-0.4,0.4-0.6,0.5s-0.5,0.2-0.7,0.2c-0.5,0-0.9-0.2-1.2-0.6s-0.5-0.9-0.5-1.6s0.2-1.2,0.5-1.6 c0.3-0.4,0.8-0.6,1.2-0.6c0.5,0,0.9,0.2,1.2,0.6V2.7h1.1V8.4z M234,6.3c0,0.4,0.1,0.8,0.2,1c0.2,0.3,0.4,0.4,0.7,0.4 c0.2,0,0.5-0.1,0.6-0.3c0.2-0.2,0.3-0.5,0.3-1c0-0.5-0.1-0.8-0.3-1S235.1,5,234.9,5s-0.5,0.1-0.6,0.3S234,5.9,234,6.3L234,6.3z"></path> <path d="M240.2,8.4V2.7h1.2v5.7H240.2z"></path> <path d="M242.4,8.4V2.7h1.2v5.7H242.4z"></path> </g> <g> <line class="st5" x1="21.3" y1="13.6" x2="21.3" y2="156.6"></line> <line class="st5" x1="345.9" y1="135.5" x2="0" y2="135.5"></line> <g> <path class="st1" d="M104.4,156.8l-1.5-2.2h-1.2v2.2h-0.4v-5.3h2c0.9,0,1.6,0.6,1.6,1.5s-0.7,1.5-1.5,1.5l1.5,2.2 C104.9,156.8,104.4,156.8,104.4,156.8z M103.2,151.9h-1.5v2.3h1.5c0.7,0,1.2-0.5,1.2-1.1S103.9,151.9,103.2,151.9z"></path> <path class="st1" d="M105.5,154.8c0-1.1,0.7-2,1.8-2s1.8,0.9,1.8,2s-0.7,2-1.8,2S105.5,156,105.5,154.8z M108.7,154.8 c0-0.9-0.5-1.6-1.4-1.6s-1.4,0.8-1.4,1.6s0.5,1.6,1.4,1.6S108.7,155.7,108.7,154.8z"></path> <path class="st1" d="M112.9,156.8l-1.5-1.8l-0.7,0.7v1.1h-0.4v-5.3h0.4v3.6l2.2-2.2h0.6l-1.8,1.7l1.8,2.1L112.9,156.8 L112.9,156.8z"></path> <path class="st1" d="M117,156.8v-4.7l-0.8,0.9l-0.3-0.3l1.2-1.2h0.4v5.3L117,156.8L117,156.8z"></path> </g> <g> <path class="st1" d="M223.7,156.8l-1.5-2.2H221v2.2h-0.4v-5.3h2c0.9,0,1.6,0.6,1.6,1.5s-0.7,1.5-1.5,1.5l1.5,2.2H223.7z M222.5,151.9H221v2.3h1.5c0.7,0,1.2-0.5,1.2-1.1S223.2,151.9,222.5,151.9z"></path> <path class="st1" d="M224.8,154.8c0-1.1,0.7-2,1.8-2s1.8,0.9,1.8,2s-0.7,2-1.8,2S224.8,156,224.8,154.8z M228,154.8 c0-0.9-0.5-1.6-1.4-1.6s-1.4,0.8-1.4,1.6s0.5,1.6,1.4,1.6S228,155.7,228,154.8z"></path> <path class="st1" d="M232.2,156.8l-1.5-1.8l-0.7,0.7v1.1h-0.4v-5.3h0.4v3.6l2.2-2.2h0.6l-1.8,1.7l1.8,2.1L232.2,156.8 L232.2,156.8z"></path> <path class="st1" d="M235.5,155.7c0.3,0.4,0.8,0.7,1.5,0.7c0.8,0,1.3-0.4,1.3-1.1c0-0.8-0.6-1.1-1.4-1.1c-0.2,0-0.4,0-0.5,0 v-0.4c0.1,0,0.3,0,0.5,0c0.7,0,1.3-0.3,1.3-1c0-0.7-0.6-1-1.3-1c-0.6,0-1,0.2-1.4,0.7l-0.3-0.3c0.4-0.4,1-0.8,1.7-0.8 c0.9,0,1.7,0.5,1.7,1.4c0,0.8-0.7,1.1-1.1,1.2c0.5,0.1,1.2,0.4,1.2,1.3s-0.7,1.5-1.8,1.5c-0.9,0-1.5-0.4-1.8-0.9L235.5,155.7 L235.5,155.7z"></path> </g> <g> <path class="st1" d="M282.1,156.8l-1.5-2.2h-1.2v2.2H279v-5.3h2c0.9,0,1.6,0.6,1.6,1.5s-0.7,1.5-1.5,1.5l1.5,2.2H282.1z M280.9,151.9h-1.5v2.3h1.5c0.7,0,1.2-0.5,1.2-1.1S281.6,151.9,280.9,151.9z"></path> <path class="st1" d="M283.2,154.8c0-1.1,0.7-2,1.8-2s1.8,0.9,1.8,2s-0.7,2-1.8,2S283.2,156,283.2,154.8z M286.4,154.8 c0-0.9-0.5-1.6-1.4-1.6s-1.4,0.8-1.4,1.6s0.5,1.6,1.4,1.6S286.4,155.7,286.4,154.8z"></path> <path class="st1" d="M290.6,156.8l-1.5-1.8l-0.7,0.7v1.1h-0.4v-5.3h0.4v3.6l2.2-2.2h0.5l-1.8,1.7l1.8,2.1L290.6,156.8 L290.6,156.8z"></path> <path class="st1" d="M296.1,156.8v-1.4h-2.5v-0.4l2.3-3.4h0.6v3.4h0.8v0.4h-0.8v1.4L296.1,156.8L296.1,156.8z M296.1,151.9l-2,3 h2V151.9z"></path> </g> <g> <path class="st1" d="M165.1,156.8l-1.5-2.2h-1.2v2.2H162v-5.3h2c0.9,0,1.6,0.6,1.6,1.5s-0.7,1.5-1.5,1.5l1.5,2.2H165.1z M163.9,151.9h-1.5v2.3h1.5c0.7,0,1.2-0.5,1.2-1.1S164.6,151.9,163.9,151.9z"></path> <path class="st1" d="M166.2,154.8c0-1.1,0.7-2,1.8-2s1.8,0.9,1.8,2s-0.7,2-1.8,2S166.2,156,166.2,154.8z M169.4,154.8 c0-0.9-0.5-1.6-1.4-1.6s-1.4,0.8-1.4,1.6s0.5,1.6,1.4,1.6S169.4,155.7,169.4,154.8z"></path> <path class="st1" d="M173.6,156.8l-1.5-1.8l-0.7,0.7v1.1H171v-5.3h0.4v3.6l2.2-2.2h0.5l-1.8,1.7l1.8,2.1L173.6,156.8 L173.6,156.8z"></path> <path class="st1" d="M176.8,156.8v-0.4c1.8-1.4,3-2.5,3-3.5c0-0.8-0.6-1.1-1.2-1.1c-0.7,0-1.2,0.3-1.4,0.7l-0.3-0.3 c0.4-0.5,1-0.8,1.8-0.8s1.7,0.4,1.7,1.5c0,1.2-1.2,2.2-2.8,3.4h2.8v0.4L176.8,156.8L176.8,156.8z"></path> </g> <g> <path class="st1" d="M344.9,156.8l-1.5-2.2h-1.2v2.2h-0.5v-5.3h2c0.9,0,1.6,0.6,1.6,1.5s-0.7,1.5-1.5,1.5l1.5,2.2H344.9z M343.7,151.9h-1.5v2.3h1.5c0.7,0,1.2-0.5,1.2-1.1S344.4,151.9,343.7,151.9z"></path> <path class="st1" d="M346,154.8c0-1.1,0.7-2,1.8-2s1.8,0.9,1.8,2s-0.7,2-1.8,2S346,156,346,154.8z M349.2,154.8 c0-0.9-0.5-1.6-1.4-1.6s-1.4,0.8-1.4,1.6s0.5,1.6,1.4,1.6S349.2,155.7,349.2,154.8z"></path> <path class="st1" d="M353.4,156.8l-1.5-1.8l-0.7,0.7v1.1h-0.4v-5.3h0.4v3.6l2.2-2.2h0.5l-1.8,1.7l1.8,2.1L353.4,156.8 L353.4,156.8z"></path> <path class="st1" d="M357,155.7c0.3,0.5,0.8,0.8,1.5,0.8c0.8,0,1.3-0.6,1.3-1.3c0-0.8-0.5-1.3-1.3-1.3c-0.5,0-0.9,0.2-1.3,0.5 l-0.3-0.1v-2.8h3v0.4h-2.6v2.1c0.3-0.2,0.7-0.5,1.3-0.5c0.9,0,1.7,0.6,1.7,1.7s-0.8,1.7-1.8,1.7c-0.9,0-1.4-0.3-1.8-0.9 L357,155.7L357,155.7z"></path> </g> <polyline class="st6" points="49.8,135.6 109.4,119.8 168.6,104.8 226.2,88.2 285.9,70 345.4,50.2 "></polyline> <polyline class="st6" points="344.9,62.7 287.3,78 228,93.6 170,107.5 111.2,121.1 52,135.2 "></polyline> <g> <path class="st1" d="M41.1,125.3v-3.8l-0.9,0.9l-0.6-0.7l1.7-1.7h1v5.3L41.1,125.3L41.1,125.3z"></path> <path class="st1" d="M47.3,120c1.5,0,2.2,1.4,2.2,2.7s-0.7,2.7-2.2,2.7s-2.2-1.4-2.2-2.7S45.7,120,47.3,120z M47.3,121 c-0.8,0-1,0.8-1,1.7s0.3,1.7,1,1.7s1-0.8,1-1.7S48,121,47.3,121z"></path> <path class="st1" d="M52.2,120c1.5,0,2.2,1.4,2.2,2.7s-0.7,2.7-2.2,2.7s-2.2-1.4-2.2-2.7S50.6,120,52.2,120z M52.2,121 c-0.8,0-1,0.8-1,1.7s0.3,1.7,1,1.7s1-0.8,1-1.7S52.9,121,52.2,121z"></path> <path class="st1" d="M57.1,120c1.5,0,2.2,1.4,2.2,2.7s-0.7,2.7-2.2,2.7s-2.2-1.4-2.2-2.7S55.5,120,57.1,120z M57.1,121 c-0.8,0-1,0.8-1,1.7s0.3,1.7,1,1.7s1-0.8,1-1.7S57.8,121,57.1,121z"></path> </g> <g> <path class="st1" d="M102.1,107.4v-3.8l-0.9,0.9l-0.6-0.7l1.7-1.7h1v5.3L102.1,107.4L102.1,107.4z"></path> <path class="st1" d="M108.2,102.1c1.5,0,2.2,1.4,2.2,2.7s-0.7,2.7-2.2,2.7s-2.2-1.4-2.2-2.7S106.7,102.1,108.2,102.1z M108.2,103.1c-0.8,0-1,0.8-1,1.7s0.3,1.7,1,1.7s1-0.8,1-1.7S109,103.1,108.2,103.1z"></path> <path class="st1" d="M112.1,104.7c-0.6-0.2-1-0.6-1-1.2c0-1,1.1-1.4,2-1.4s2,0.4,2,1.4c0,0.7-0.5,1-1.1,1.2 c0.6,0.2,1.1,0.7,1.1,1.3c0,1-1,1.5-2.1,1.5s-2.1-0.5-2.1-1.5C111,105.4,111.5,105,112.1,104.7L112.1,104.7z M113.1,105.2 c-0.3,0-1,0.3-1,0.7c0,0.4,0.4,0.6,1,0.6s1-0.2,1-0.6C114.1,105.5,113.4,105.3,113.1,105.2z M113.1,103.1 c-0.5,0-0.9,0.2-0.9,0.6c0,0.4,0.6,0.6,0.9,0.6c0.3-0.1,0.9-0.2,0.9-0.6C114,103.3,113.6,103.1,113.1,103.1z"></path> <path class="st1" d="M117.9,102.1c1.5,0,2.2,1.4,2.2,2.7s-0.7,2.7-2.2,2.7s-2.2-1.4-2.2-2.7S116.4,102.1,117.9,102.1z M117.9,103.1c-0.8,0-1,0.8-1,1.7s0.3,1.7,1,1.7s1-0.8,1-1.7S118.7,103.1,117.9,103.1z"></path> </g> <g> <path class="st1" d="M163.2,92.3v-3.8l-0.9,0.9l-0.6-0.7l1.7-1.7h1v5.3L163.2,92.3L163.2,92.3z"></path> <path class="st1" d="M168.4,92.3v-3.8l-0.9,0.9l-0.6-0.7l1.7-1.7h1v5.3L168.4,92.3L168.4,92.3z"></path> <path class="st1" d="M172.8,86.9c0.6,0,1.2,0.2,1.6,0.5l-0.5,0.8c-0.3-0.3-0.6-0.4-1.1-0.4c-0.8,0-1.3,0.7-1.3,1.5 c0,0,0,0.1,0,0.1c0.2-0.4,0.8-0.7,1.4-0.7c0.9,0,1.8,0.6,1.8,1.7c0,1-0.8,1.8-2,1.8c-1.6,0-2.3-1.2-2.3-2.7 C170.3,88,171.2,86.9,172.8,86.9L172.8,86.9z M172.6,89.8c-0.4,0-0.8,0.2-1,0.5c0.1,0.5,0.3,1.1,1.1,1.1c0.6,0,0.9-0.4,0.9-0.8 C173.5,90,173.1,89.8,172.6,89.8L172.6,89.8z"></path> <path class="st1" d="M177.6,86.9c0.6,0,1.2,0.2,1.6,0.5l-0.5,0.8c-0.3-0.3-0.6-0.4-1.1-0.4c-0.8,0-1.3,0.7-1.3,1.5 c0,0,0,0.1,0,0.1c0.2-0.4,0.8-0.7,1.4-0.7c0.9,0,1.8,0.6,1.8,1.7c0,1-0.8,1.8-2,1.8c-1.6,0-2.3-1.2-2.3-2.7 C175.2,88,176.1,86.9,177.6,86.9L177.6,86.9z M177.4,89.8c-0.4,0-0.8,0.2-1,0.5c0.1,0.5,0.3,1.1,1.1,1.1c0.6,0,0.9-0.4,0.9-0.8 C178.3,90,177.9,89.8,177.4,89.8L177.4,89.8z"></path> </g> <g> <path class="st1" d="M221.1,77.2v-3.8l-0.9,0.9l-0.6-0.7l1.7-1.7h1v5.3L221.1,77.2L221.1,77.2z"></path> <path class="st1" d="M225.1,77.2v-0.9c2.2-1.6,2.8-2.1,2.8-2.8c0-0.5-0.4-0.7-0.9-0.7c-0.6,0-1.1,0.2-1.4,0.6l-0.6-0.7 c0.5-0.6,1.3-0.9,2-0.9c1.1,0,2,0.6,2,1.7c0,0.9-0.7,1.7-2.2,2.7h2.2v1L225.1,77.2L225.1,77.2z"></path> <path class="st1" d="M232.2,71.9c0.6,0,1.2,0.2,1.6,0.5l-0.5,0.8c-0.3-0.3-0.6-0.4-1.1-0.4c-0.8,0-1.3,0.7-1.3,1.5 c0,0,0,0.1,0,0.1c0.2-0.4,0.8-0.7,1.4-0.7c0.9,0,1.8,0.6,1.8,1.7c0,1-0.8,1.8-2,1.8c-1.6,0-2.3-1.2-2.3-2.7 C229.8,73,230.7,71.9,232.2,71.9L232.2,71.9z M232,74.8c-0.4,0-0.8,0.2-1,0.5c0.1,0.5,0.3,1.1,1.1,1.1c0.6,0,0.9-0.4,0.9-0.8 C232.9,75,232.5,74.8,232,74.8L232,74.8z"></path> <path class="st1" d="M236.8,71.9c1.5,0,2.2,1.4,2.2,2.7s-0.7,2.7-2.2,2.7s-2.2-1.4-2.2-2.7S235.3,71.9,236.8,71.9z M236.8,72.9 c-0.8,0-1,0.8-1,1.7s0.3,1.7,1,1.7s1-0.8,1-1.7S237.5,72.9,236.8,72.9z"></path> </g> <g> <path class="st1" d="M279.7,58.9V55l-0.9,0.9l-0.6-0.7l1.7-1.7h1v5.3L279.7,58.9L279.7,58.9z"></path> <path class="st1" d="M284.1,57.4c0.4,0.4,0.9,0.6,1.5,0.6c0.6,0,1-0.3,1-0.7c0-0.4-0.3-0.6-1.1-0.6c-0.2,0-0.6,0-0.7,0v-1 c0.1,0,0.5,0,0.7,0c0.6,0,1-0.2,1-0.6c0-0.4-0.4-0.6-1-0.6c-0.5,0-1,0.2-1.3,0.5l-0.5-0.7c0.4-0.5,1.1-0.8,2-0.8 c1.2,0,2,0.5,2,1.4c0,0.7-0.6,1.1-1.1,1.2c0.5,0,1.2,0.5,1.2,1.3c0,0.9-0.8,1.5-2.1,1.5c-1,0-1.7-0.4-2.1-0.8L284.1,57.4 L284.1,57.4z"></path> <path class="st1" d="M290.8,53.5c0.6,0,1.2,0.2,1.6,0.5l-0.5,0.8c-0.3-0.3-0.6-0.4-1-0.4c-0.8,0-1.3,0.7-1.3,1.5 c0,0,0,0.1,0,0.1c0.2-0.4,0.8-0.7,1.4-0.7c1,0,1.8,0.6,1.8,1.7c0,1-0.8,1.8-2,1.8c-1.6,0-2.3-1.2-2.3-2.7 C288.3,54.7,289.2,53.5,290.8,53.5L290.8,53.5z M290.5,56.4c-0.4,0-0.8,0.2-1,0.5c0,0.5,0.3,1.1,1.1,1.1c0.6,0,0.9-0.4,0.9-0.8 C291.4,56.6,291,56.4,290.5,56.4L290.5,56.4z"></path> <path class="st1" d="M295.3,53.5c1.5,0,2.2,1.4,2.2,2.7s-0.7,2.7-2.2,2.7s-2.2-1.4-2.2-2.7S293.8,53.5,295.3,53.5z M295.3,54.5 c-0.8,0-1,0.8-1,1.7s0.3,1.7,1,1.7s1-0.8,1-1.7S296,54.5,295.3,54.5z"></path> </g> <g> <path class="st1" d="M353.7,52.7v-3.5l-0.9,0.9l-0.8-0.8l1.8-1.8h1.2v5.3H353.7z"></path> <path class="st1" d="M360.2,52.7v-1h-2.5v-1.1l2-3.2h1.9v3.1h0.6v1.2h-0.6v1L360.2,52.7L360.2,52.7z M360.2,48.6l-1.2,1.9h1.2 V48.6z"></path> <path class="st1" d="M362.6,50c0-1.7,1-2.7,2.6-2.7c0.6,0,1.2,0.2,1.6,0.5l-0.6,1c-0.3-0.2-0.6-0.3-1-0.3 c-0.6,0-1.2,0.5-1.2,1.2v0.1c0.3-0.3,0.8-0.6,1.3-0.6c1,0,1.8,0.6,1.8,1.7s-0.9,1.8-2.1,1.8C363.3,52.8,362.6,51.5,362.6,50 L362.6,50z M365.7,51c0-0.4-0.5-0.6-0.9-0.6c-0.3,0-0.7,0.1-0.9,0.4c0,0.4,0.3,0.9,0.9,0.9C365.4,51.6,365.7,51.3,365.7,51 L365.7,51z"></path> <path class="st1" d="M367.7,52.2l0.6-1c0.3,0.2,0.6,0.3,1,0.3c0.8,0,1.2-0.6,1.2-1.2v-0.1c-0.3,0.3-0.8,0.6-1.3,0.6 c-1,0-1.8-0.6-1.8-1.7s0.9-1.8,2.1-1.8c1.7,0,2.4,1.2,2.4,2.7c0,1.7-1,2.7-2.6,2.7C368.7,52.8,368.1,52.6,367.7,52.2L367.7,52.2 z M370.6,49.4c0-0.4-0.3-0.9-0.9-0.9c-0.5,0-0.8,0.3-0.8,0.6c0,0.4,0.5,0.6,0.9,0.6C370,49.7,370.3,49.6,370.6,49.4L370.6,49.4z "></path> </g> <g> <path class="st1" d="M375.5,54.2c-0.7-1-1-2.2-1-3.5s0.4-2.5,1-3.5l0.2,0.2c-0.5,1-0.8,1.9-0.8,3.3s0.3,2.3,0.8,3.3 C375.7,54.1,375.5,54.2,375.5,54.2z"></path> <path class="st1" d="M378,50.2v1.7h-0.4v-1.7h-1.6v-0.3h1.6v-1.7h0.4v1.7h1.5v0.3H378z"></path> <path class="st1" d="M382.6,52.7v-1.4h-2.5v-0.4l2.3-3.4h0.6v3.4h0.8v0.4H383v1.4H382.6L382.6,52.7z M382.6,47.8l-2,3h2V47.8z"></path> <path class="st1" d="M386.5,47.3c0.7,0,1.1,0.3,1.4,0.7l-0.3,0.3c-0.2-0.3-0.6-0.6-1.1-0.6c-1.1,0-1.6,1.2-1.6,2.3 c0,0.1,0,0.2,0,0.2c0.2-0.4,0.8-0.9,1.5-0.9c1,0,1.7,0.5,1.7,1.7c0,0.9-0.6,1.7-1.8,1.7c-1.4,0-1.9-1.3-1.9-2.7 S385.1,47.3,386.5,47.3L386.5,47.3z M386.4,49.8c-0.6,0-1.1,0.4-1.4,0.9c0.1,0.7,0.4,1.6,1.4,1.6c0.9,0,1.3-0.7,1.3-1.3 C387.8,50.2,387.2,49.8,386.4,49.8L386.4,49.8z"></path> <path class="st1" d="M389.1,53.4c0.2-0.2,0.4-0.5,0.5-0.7h-0.1c-0.2,0-0.3-0.1-0.3-0.3s0.1-0.3,0.3-0.3c0.2,0,0.4,0.2,0.4,0.5 c0,0.4-0.3,0.9-0.6,1.1L389.1,53.4L389.1,53.4z"></path> <path class="st1" d="M391.4,51.8c0.2,0.3,0.6,0.6,1.1,0.6c1.2,0,1.6-1.2,1.6-2.3v-0.2c-0.2,0.4-0.8,0.9-1.5,0.9 c-1,0-1.7-0.5-1.7-1.7c0-0.9,0.6-1.7,1.8-1.7c1.4,0,1.9,1.3,1.9,2.7s-0.6,2.7-2,2.7c-0.7,0-1.1-0.3-1.4-0.7L391.4,51.8 L391.4,51.8z M392.6,47.7c-0.9,0-1.3,0.7-1.3,1.3c0,0.9,0.6,1.3,1.3,1.3c0.6,0,1.1-0.4,1.4-0.9C394,48.6,393.6,47.7,392.6,47.7 L392.6,47.7z"></path> <path class="st1" d="M398.6,47.3c0.7,0,1.2,0.6,1.2,1.3s-0.5,1.3-1.2,1.3s-1.2-0.5-1.2-1.3S397.9,47.3,398.6,47.3z M398.6,47.6 c-0.5,0-0.9,0.4-0.9,1s0.4,1,0.9,1s0.9-0.5,0.9-1S399.1,47.6,398.6,47.6z M398.1,52.7l3.4-5.3h0.4l-3.4,5.3H398.1L398.1,52.7z M401.3,50.2c0.7,0,1.2,0.6,1.2,1.3s-0.5,1.3-1.2,1.3s-1.2-0.5-1.2-1.3S400.5,50.2,401.3,50.2z M401.3,50.5 c-0.5,0-0.9,0.5-0.9,1s0.4,1,0.9,1s0.9-0.4,0.9-1S401.8,50.5,401.3,50.5z"></path> <path class="st1" d="M402.9,47.4l0.2-0.2c0.7,1,1.1,2.2,1.1,3.5s-0.4,2.5-1.1,3.5l-0.2-0.2c0.5-1,0.8-2,0.8-3.3 S403.4,48.5,402.9,47.4z"></path> </g> <g> <path class="st1" d="M353.7,65.3v-3.5l-0.9,0.9l-0.8-0.8l1.8-1.8h1.2v5.3H353.7z"></path> <path class="st1" d="M360.2,65.3v-1h-2.5v-1.1l2-3.2h1.9v3.1h0.6v1.2h-0.6v1L360.2,65.3L360.2,65.3z M360.2,61.2l-1.2,1.9h1.2 V61.2z"></path> <path class="st1" d="M362.6,62.7c0-1.4,0.7-2.7,2.3-2.7s2.3,1.3,2.3,2.7s-0.7,2.7-2.3,2.7S362.6,64,362.6,62.7z M365.8,62.7 c0-0.9-0.2-1.5-0.9-1.5s-0.9,0.6-0.9,1.5s0.2,1.5,0.9,1.5S365.8,63.6,365.8,62.7z"></path> <path class="st1" d="M367.5,64.6l0.7-0.9c0.4,0.4,1,0.6,1.4,0.6c0.6,0,0.9-0.2,0.9-0.5s-0.2-0.4-0.9-0.4c-0.2,0-0.6,0-0.7,0V62 c0.1,0,0.5,0,0.7,0c0.5,0,0.9-0.1,0.9-0.4c0-0.3-0.4-0.5-0.9-0.5s-0.9,0.2-1.3,0.5l-0.7-0.8c0.4-0.5,1.1-0.8,2.1-0.8 c1.3,0,2.1,0.6,2.1,1.5c0,0.6-0.5,1.1-1.1,1.2c0.6,0,1.2,0.5,1.2,1.2c0,0.9-0.9,1.6-2.2,1.6C368.6,65.4,367.9,65,367.5,64.6 L367.5,64.6z"></path> </g> <g> <path class="st1" d="M375.3,66.9c-0.7-1-1-2.2-1-3.5s0.4-2.5,1-3.5l0.2,0.2c-0.5,1-0.8,1.9-0.8,3.3c0,1.4,0.3,2.3,0.8,3.3 C375.5,66.7,375.3,66.9,375.3,66.9z"></path> <path class="st1" d="M377.8,62.8v1.7h-0.4v-1.7h-1.6v-0.3h1.6v-1.7h0.4v1.7h1.5v0.3H377.8z"></path> <path class="st1" d="M382.4,65.3v-1.4h-2.5v-0.4l2.3-3.4h0.6v3.4h0.8v0.4h-0.8v1.4H382.4L382.4,65.3z M382.4,60.5l-2,3h2V60.5z"></path> <path class="st1" d="M386.3,59.9c1.4,0,1.9,1.5,1.9,2.7s-0.5,2.7-1.9,2.7s-2-1.5-2-2.7S384.8,59.9,386.3,59.9z M386.3,60.3 c-1.1,0-1.5,1.2-1.5,2.3s0.4,2.3,1.5,2.3s1.5-1.2,1.5-2.3S387.4,60.3,386.3,60.3z"></path> <path class="st1" d="M389.1,66.1c0.2-0.2,0.4-0.5,0.5-0.7h-0.1c-0.2,0-0.3-0.1-0.3-0.3s0.1-0.3,0.3-0.3c0.2,0,0.4,0.2,0.4,0.5 c0,0.4-0.3,0.9-0.6,1.1L389.1,66.1L389.1,66.1z"></path> <path class="st1" d="M391,64.2c0.3,0.4,0.8,0.7,1.5,0.7c0.8,0,1.3-0.4,1.3-1.1c0-0.8-0.6-1.1-1.4-1.1c-0.2,0-0.4,0-0.5,0v-0.4 c0.1,0,0.3,0,0.5,0c0.7,0,1.3-0.3,1.3-1c0-0.7-0.6-1-1.3-1c-0.6,0-1,0.2-1.4,0.7l-0.3-0.3c0.4-0.5,1-0.8,1.7-0.8 c0.9,0,1.7,0.5,1.7,1.4c0,0.8-0.7,1.2-1.1,1.2c0.5,0,1.2,0.4,1.2,1.3c0,0.9-0.7,1.5-1.8,1.5c-0.9,0-1.5-0.4-1.8-0.9L391,64.2 L391,64.2z"></path> <path class="st1" d="M398.2,59.9c0.7,0,1.2,0.6,1.2,1.3s-0.5,1.3-1.2,1.3S397,62,397,61.2S397.5,59.9,398.2,59.9z M398.2,60.2 c-0.5,0-0.9,0.4-0.9,1s0.4,1,0.9,1s0.9-0.5,0.9-1S398.8,60.2,398.2,60.2z M397.8,65.3l3.4-5.3h0.4l-3.4,5.3H397.8L397.8,65.3z M400.9,62.8c0.7,0,1.2,0.6,1.2,1.3c0,0.7-0.5,1.3-1.2,1.3s-1.2-0.6-1.2-1.3S400.2,62.8,400.9,62.8z M400.9,63.1 c-0.5,0-0.9,0.5-0.9,1s0.4,1,0.9,1s0.9-0.4,0.9-1S401.4,63.1,400.9,63.1z"></path> <path class="st1" d="M402.6,60l0.2-0.2c0.7,1,1.1,2.2,1.1,3.5s-0.4,2.5-1.1,3.5l-0.2-0.2c0.5-1,0.8-1.9,0.8-3.3 S403.1,61.1,402.6,60z"></path> </g> <rect x="107.2" y="114.1" class="st0" width="6.2" height="6.2"></rect> <rect x="167.7" y="99.5" class="st0" width="6.2" height="6.2"></rect> <rect x="225.9" y="83.9" class="st0" width="6.2" height="6.2"></rect> <rect x="225.9" y="92" class="st2" width="6.2" height="6.2"></rect> <rect x="167.7" y="106.2" class="st2" width="6.2" height="6.2"></rect> <rect x="107.2" y="120.3" class="st2" width="6.2" height="6.2"></rect> <rect x="284.6" y="66.4" class="st0" width="6.2" height="6.2"></rect> <rect x="342" y="47.2" class="st0" width="6.2" height="6.2"></rect> <rect x="284.6" y="75.1" class="st2" width="6.2" height="6.2"></rect> <rect x="342.3" y="59.9" class="st2" width="6.2" height="6.2"></rect> <g> <path class="st1" d="M17,6.6l-2.2-2.5l-0.6,0.6v1.8h-0.4V1.3h0.4v2.9l2.5-2.9h0.6l-2.2,2.5l2.5,2.8H17L17,6.6z"></path> <path class="st1" d="M20,2.7c0.7,0,1,0.3,1.4,0.7l-0.3,0.2C20.8,3.2,20.4,3,20,3c-0.9,0-1.4,0.7-1.4,1.6s0.5,1.6,1.4,1.6 c0.4,0,0.8-0.2,1-0.5L21.4,6C21,6.4,20.7,6.7,20,6.7c-1.1,0-1.9-0.9-1.9-2S18.9,2.7,20,2.7z M19.8,2.2L19,1.1h0.3L20,1.9 l0.7-0.9H21l-0.8,1.1H19.8L19.8,2.2z"></path> <path class="st1" d="M25.1,8.2c-0.7-1-1-2.2-1-3.5s0.4-2.5,1-3.5l0.2,0.2c-0.5,1-0.8,1.9-0.8,3.3S24.8,7,25.3,8L25.1,8.2z"></path> <path class="st1" d="M26.2,5.8V3.1h-0.6V2.8h0.6v-1h0.4v1h0.8v0.4h-0.8v2.7c0,0.3,0.1,0.5,0.4,0.5c0.2,0,0.3-0.1,0.4-0.2 l0.2,0.3c-0.1,0.1-0.3,0.2-0.6,0.2C26.4,6.7,26.2,6.4,26.2,5.8L26.2,5.8z"></path> <path class="st1" d="M28.2,1.8c0-0.2,0.1-0.3,0.3-0.3s0.3,0.1,0.3,0.3s-0.1,0.3-0.3,0.3S28.2,2,28.2,1.8z M28.3,6.6V2.8h0.4v3.8 L28.3,6.6L28.3,6.6z"></path> <path class="st1" d="M29.9,5.8c0.2,0.3,0.7,0.6,1.2,0.6c0.6,0,1-0.3,1-0.8c0-0.5-0.5-0.6-1.1-0.8c-0.6-0.2-1.3-0.3-1.3-1.1 c0-0.6,0.5-1.1,1.4-1.1c0.7,0,1.1,0.2,1.4,0.6l-0.2,0.3C32,3.2,31.6,3,31.1,3c-0.6,0-1,0.3-1,0.7c0,0.4,0.5,0.5,1,0.7 c0.7,0.2,1.4,0.3,1.4,1.2c0,0.6-0.5,1.1-1.4,1.1c-0.6,0-1.1-0.2-1.5-0.6L29.9,5.8L29.9,5.8z"></path> <path class="st1" d="M33.8,6c0.2,0,0.4,0.2,0.4,0.3S34,6.7,33.8,6.7s-0.3-0.2-0.3-0.4S33.6,6,33.8,6z"></path> <path class="st1" d="M34.8,1.3l0.2-0.2c0.7,1,1.1,2.2,1.1,3.5s-0.4,2.5-1.1,3.5L34.8,8c0.5-1,0.8-1.9,0.8-3.3S35.3,2.4,34.8,1.3 z"></path> <path class="st1" d="M37.7,3.4l0-0.9L36.9,3l-0.2-0.3l0.8-0.4l-0.8-0.4l0.2-0.3l0.8,0.5l0-0.9H38l0,0.9l0.8-0.5l0.1,0.3L38,2.3 l0.8,0.4L38.7,3l-0.8-0.5l0,0.9C38,3.4,37.7,3.4,37.7,3.4z"></path> </g> <path class="st4" d="M52.6,135.2l57.5-9.3c0,2-0.1,9.3-0.1,9.3l0,0l60.9-12.9v13c0,0,58.7-14.1,58.2-14V135l58.6-14.8v14.9 l57.7-15.4"></path> <path class="st3" d="M53.1,135.2l57-11.4c0,7.9-0.1,11.3-0.1,11.3l0,0l60.9-14.9v15c0,0,59.1-16.2,58.2-15.9V135l58.6-16.8v16.9 l57.7-17.9v18.5"></path> <g> <path class="st1" d="M354.1,112.7v1.7h-0.4v-1.7h-1.6v-0.3h1.6v-1.7h0.4v1.7h1.5v0.3H354.1z"></path> <path class="st1" d="M356.5,114.2c0.3,0.4,0.8,0.7,1.5,0.7c0.8,0,1.3-0.4,1.3-1.1c0-0.8-0.6-1.1-1.4-1.1c-0.2,0-0.4,0-0.5,0 v-0.4c0.1,0,0.3,0,0.5,0c0.7,0,1.3-0.3,1.3-1c0-0.7-0.6-1-1.3-1c-0.6,0-1,0.2-1.4,0.7l-0.3-0.3c0.4-0.4,1-0.8,1.7-0.8 c0.9,0,1.7,0.5,1.7,1.4c0,0.8-0.7,1.2-1.1,1.2c0.5,0.1,1.2,0.4,1.2,1.3s-0.7,1.5-1.8,1.5c-0.9,0-1.5-0.4-1.8-0.9L356.5,114.2 L356.5,114.2z"></path> <path class="st1" d="M363,115.2v-1.4h-2.5v-0.4l2.3-3.4h0.6v3.4h0.8v0.4h-0.8v1.4H363L363,115.2z M363,110.4l-2,3h2V110.4z"></path> <path class="st1" d="M368,109.9c0.7,0,1.2,0.6,1.2,1.3s-0.5,1.3-1.2,1.3s-1.2-0.5-1.2-1.3S367.3,109.9,368,109.9z M368,110.2 c-0.5,0-0.9,0.4-0.9,1s0.4,1,0.9,1s0.9-0.4,0.9-1S368.6,110.2,368,110.2z M367.6,115.2l3.4-5.3h0.4l-3.4,5.3H367.6L367.6,115.2z M370.7,112.7c0.7,0,1.2,0.6,1.2,1.3s-0.5,1.3-1.2,1.3s-1.2-0.6-1.2-1.3S370,112.7,370.7,112.7z M370.7,113 c-0.5,0-0.9,0.4-0.9,1s0.4,1,0.9,1s0.9-0.4,0.9-1S371.3,113,370.7,113z"></path> </g> <g> <path class="st1" d="M354.1,121.3v1.7h-0.4v-1.7h-1.6v-0.3h1.6v-1.7h0.4v1.7h1.5v0.3H354.1z"></path> <path class="st1" d="M356.4,123.8v-0.4c1.8-1.4,3-2.5,3-3.5c0-0.8-0.6-1.1-1.2-1.1c-0.7,0-1.2,0.3-1.5,0.7l-0.3-0.3 c0.4-0.5,1-0.8,1.8-0.8s1.7,0.4,1.7,1.5c0,1.2-1.2,2.2-2.8,3.4h2.8v0.4H356.4L356.4,123.8z"></path> <path class="st1" d="M361.5,122.9c0.2,0.3,0.6,0.6,1.1,0.6c1.2,0,1.6-1.2,1.6-2.3v-0.2c-0.2,0.4-0.8,0.9-1.5,0.9 c-1,0-1.7-0.6-1.7-1.7c0-0.9,0.6-1.7,1.8-1.7c1.4,0,1.9,1.3,1.9,2.7s-0.6,2.7-2,2.7c-0.7,0-1.1-0.3-1.4-0.7L361.5,122.9 L361.5,122.9z M362.8,118.8c-0.9,0-1.3,0.7-1.3,1.3c0,0.9,0.6,1.3,1.3,1.3c0.6,0,1.1-0.4,1.4-0.9 C364.1,119.7,363.8,118.8,362.8,118.8L362.8,118.8z"></path> <path class="st1" d="M365.6,124.6c0.2-0.2,0.4-0.5,0.5-0.7H366c-0.2,0-0.3-0.1-0.3-0.3s0.1-0.3,0.3-0.3c0.2,0,0.4,0.2,0.4,0.5 c0,0.4-0.3,0.9-0.6,1.1L365.6,124.6L365.6,124.6z"></path> <path class="st1" d="M368.6,121.1c-0.6-0.2-1.2-0.6-1.2-1.3c0-0.9,0.9-1.4,1.7-1.4s1.7,0.4,1.7,1.4c0,0.7-0.6,1.1-1.2,1.3 c0.7,0.2,1.3,0.7,1.3,1.4c0,0.8-0.8,1.4-1.8,1.4s-1.8-0.6-1.8-1.4C367.3,121.7,368,121.2,368.6,121.1L368.6,121.1z M369.1,121.3 c-0.3,0-1.3,0.4-1.3,1.2c0,0.6,0.6,1,1.3,1s1.3-0.4,1.3-1C370.5,121.6,369.5,121.3,369.1,121.3z M369.1,118.8 c-0.7,0-1.2,0.4-1.2,1c0,0.7,0.9,1,1.2,1c0.3-0.1,1.2-0.3,1.2-1C370.4,119.2,369.8,118.8,369.1,118.8z"></path> <path class="st1" d="M374.9,118.4c0.7,0,1.2,0.6,1.2,1.3s-0.5,1.3-1.2,1.3s-1.2-0.5-1.2-1.3S374.2,118.4,374.9,118.4z M374.9,118.7c-0.5,0-0.9,0.4-0.9,1s0.4,1,0.9,1s0.9-0.4,0.9-1S375.5,118.7,374.9,118.7z M374.5,123.8l3.4-5.3h0.4l-3.4,5.3 H374.5L374.5,123.8z M377.6,121.3c0.7,0,1.2,0.6,1.2,1.3s-0.5,1.3-1.2,1.3s-1.2-0.6-1.2-1.3S376.9,121.3,377.6,121.3z M377.6,121.6c-0.5,0-0.9,0.4-0.9,1s0.4,1,0.9,1s0.9-0.4,0.9-1S378.1,121.6,377.6,121.6z"></path> </g> <rect x="48.3" y="131.7" class="st0" width="6.2" height="6.2"></rect> </g> </g> </g> </svg> 