<?xml version="1.0" encoding="UTF-8"?> <svg xmlns="http://www.w3.org/2000/svg" width="33.184" height="47.949" viewBox="0 0 33.184 47.949"><defs><style>.a{fill:#db1548;}</style></defs><path class="a" d="M3359.2-1784.374l12.829-12.828L3359.2-1810.03v5.046h-17.676v15.564H3359.2Zm-16.438-6.284v-13.089h17.676v-3.3l9.841,9.841-9.841,9.841v-3.3Zm19.66-6.544a4.813,4.813,0,0,0-1.419-3.427,4.814,4.814,0,0,0-3.427-1.419,4.815,4.815,0,0,0-3.426,1.419,4.851,4.851,0,0,0,0,6.853,4.83,4.83,0,0,0,3.426,1.417,4.83,4.83,0,0,0,3.427-1.417A4.813,4.813,0,0,0,3362.422-1797.2Zm-4.846,3.609a3.587,3.587,0,0,1-2.551-1.057,3.586,3.586,0,0,1-1.057-2.552,3.587,3.587,0,0,1,1.057-2.552,3.587,3.587,0,0,1,2.551-1.057,3.586,3.586,0,0,1,2.552,1.057,3.585,3.585,0,0,1,1.057,2.552,3.584,3.584,0,0,1-1.057,2.552A3.586,3.586,0,0,1,3357.576-1793.593Zm.619-4.227h1.538v1.238H3358.2v1.537h-1.237v-1.537h-1.537v-1.238h1.537v-1.537h1.237Zm-6.522,10.083-12.828,12.828,12.828,12.828v-5.046h17.677v-15.565h-17.677Zm16.439,6.283v13.09h-17.677v3.3l-9.84-9.841,9.84-9.841v3.3Zm-18.241,9.971a4.829,4.829,0,0,0,3.427,1.417,4.828,4.828,0,0,0,3.426-1.417,4.852,4.852,0,0,0,0-6.853,4.852,4.852,0,0,0-6.853,0A4.852,4.852,0,0,0,3349.87-1771.483Zm3.427-7.035a3.586,3.586,0,0,1,2.552,1.057,3.585,3.585,0,0,1,1.057,2.552,3.584,3.584,0,0,1-1.057,2.552,3.585,3.585,0,0,1-2.552,1.057,3.587,3.587,0,0,1-2.552-1.057,3.587,3.587,0,0,1-1.057-2.552,3.588,3.588,0,0,1,1.057-2.552A3.588,3.588,0,0,1,3353.3-1778.518Zm2.156,4.228h-4.312v-1.238h4.312Z" transform="translate(-3338.845 1810.03)"></path></svg> 